<?xml version="1.0" encoding="UTF-8"?>
<!DOCTYPE svg  PUBLIC '-//W3C//DTD SVG 1.1//EN'  'http://www.w3.org/Graphics/SVG/1.1/DTD/svg11.dtd'>
<svg version="1.1" xmlns="http://www.w3.org/2000/svg">
<defs>
<font id="Ogg-Italic" horiz-adv-x="809">
<font-face font-family="Ogg" font-style="italic" font-weight="400" ascent="750" bbox="-516.488 -396.043 1996.68 1074" cap-height="829" descent="-250" panose-1="0 0 0 0 0 0 0 0 0 0" underline-position="-100" underline-thickness="50" unicode-range="U+0020-00FE" units-per-em="1000" x-height="506"/>
<missing-glyph/>
<glyph glyph-name="space" horiz-adv-x="290" unicode=" "/>
<glyph d="M10 7q-10 17 7 57q10 23 22 30q13 7 42 7q31 0 38 -10q5 -37 -19 -73q-7 -9 -12 -13q-10 -6 -37 -6q-33 1 -41 8zM403 857q9 17 50 8q28 -8 27 -18q-28 -65 -124 -232q-15 -27 -46 -79q-115 -193 -192 -356l-9 2q100 209 196 450q61 155 98 225z" glyph-name="exclam" horiz-adv-x="305" unicode="!"/>
<glyph d="M266 709q22 0 22 -20q-1 -7 -4 -14q-3 -6 -30 -49q-85 -134 -118 -205q-4 -10 -8 -5q-1 3 0 7q32 68 98 252q3 8 4 11q13 22 36 23zM392 710q22 0 22 -20q-1 -7 -4 -14q-3 -6 -30 -49q-85 -134 -118 -205q-4 -10 -8 -5q-1 3 0 7q32 68 98 252q3 8 4 11q13 22 36 23z" glyph-name="quotedbl" horiz-adv-x="289" unicode='"'/>
<glyph d="M573 351v-124q69 1 203 5q8 -12 6 -24v-3q-116 10 -209 12q0 -70 4 -203q-14 -11 -17 -11q-4 0 -8 1q2 57 6 131q3 55 4 83q-36 1 -121 1q-29 0 -78 -1h-53q0 -71 4 -204q-14 -11 -17 -11q-4 0 -8 1q2 57 6 130q3 55 4 83q-38 -1 -107 -3q-55 -2 -88 -3q-11 14 -11 17 q0 4 1 8q128 -8 205 -9q2 67 2 123q0 93 -1 128q-39 -1 -107 -3q-56 -2 -89 -3q-11 14 -11 17q0 4 1 8q131 -8 206 -9l-3 193q12 8 24 6h3q-11 -169 -12 -199q37 -1 128 -1h123l-3 194q12 8 24 6h3q-11 -169 -12 -200q67 1 201 5q8 -12 6 -24v-3q-117 10 -208 12 q-1 -34 -1 -126zM441 479q-29 0 -77 -1h-53q-1 -35 -1 -127v-124h252q2 67 2 123q0 93 -1 128q-36 1 -122 1z" glyph-name="numbersign" unicode="#"/>
<glyph d="M127 306l7 -2q-37 -84 -40 -137v-17q0 -64 76 -110q29 -16 61 -26q80 161 149 306q-101 64 -132 95q-64 67 -28 139q49 104 198 124q31 4 63 4q30 0 63 -5l55 120q13 4 24 -4q3 -2 4 -3q-33 -60 -62 -116q115 -21 200 -88l-120 -210l-7 4q41 74 44 131q1 13 1 27 q1 64 -66 104q-26 14 -57 22q-73 -138 -137 -277q108 -67 144 -114q49 -67 14 -143q-59 -124 -228 -137q-18 -1 -35 -1q-34 0 -73 5q-17 -37 -48 -107q-15 -34 -22 -50q-19 -5 -31 5l79 155q-126 22 -202 78q-11 8 -19 16zM317 2q168 1 212 95q37 82 -53 157q-29 24 -87 61 q-35 -75 -139 -306q31 -7 67 -7zM481 673q-154 0 -203 -77q-5 -9 -9 -17q-17 -35 4.5 -71t48 -55.5t90.5 -58.5l1 -1q50 109 127 275q-31 5 -59 5z" glyph-name="dollar" horiz-adv-x="701" unicode="$"/>
<glyph d="M443 340q-64 -56 -379 -342q-9 -2 -25 10q-3 3 -5 4q363 300 374 310q13 11 24 20q26 23 378 341q13 12 24 22q10 2 18 -10q4 -4 7 -6q-199 -160 -416 -349zM737 155q-21 -76 -98 -122q-7 -4 -13 -7q-66 -32 -93 -33q-77 0 -102 65q-15 41 -2 91q20 77 100 124q6 3 11 6 q62 33 99 33q75 0 98 -63q14 -41 0 -94zM559 22q43 0 66 9q39 42 60 118q24 91 -27 125q-21 13 -49 13q-41 0 -65 -12q-42 -43 -64 -120q-21 -79 24 -115q22 -18 55 -18zM454 538q-21 -76 -98 -122q-7 -4 -13 -7q-66 -32 -93 -33q-77 0 -102 65q-15 41 -2 91q20 77 100 124 q6 3 11 6q62 33 99 33q75 0 98 -63q14 -41 0 -94zM276 405q43 0 66 9q39 42 60 118q24 91 -27 125q-21 13 -49 13q-41 0 -65 -12q-42 -43 -64 -120q-21 -79 24 -115q22 -18 55 -18z" glyph-name="percent" horiz-adv-x="839" unicode="%"/>
<glyph d="M231 -38q-78 2 -139 82q-58 77 -54 158q2 40 21 69q58 83 186 144q51 24 105 40q-17 65 -16 111q1 78 102 181l13 13q62 61 158 70q14 1 27 1q82 0 137 -50q11 -11 19 -22q-77 -87 -136 -170l-7 4q63 87 87 127q-50 69 -153 70q-98 -1 -146 -54q-42 -42 -44 -121 q-4 -108 94 -286q89 -163 187 -248q59 -50 100 -51q77 0 126 114q10 22 19 48q63 185 -55 238q-44 19 -109 19q-59 0 -95 -7q-8 -2 -7 4q2 8 12 21q7 9 18 24q17 22 26 23q129 0 215 5q133 11 215 47q7 2 8 0q-1 -3 -6 -8q-35 -32 -109 -85q-26 -19 -31 -20h-23 q-42 1 -109 7q-60 6 -88 6h-2q3 -1 5 -1q130 -25 190 -117q55 -84 22 -168q-26 -67 -149 -133q-22 -12 -69 -35q-45 -23 -65 -34q-76 9 -184 146q-18 23 -35 47q-106 -174 -261 -209zM486 179q-89 129 -131 260q-161 -24 -231 -132q-4 -6 -7 -12q-32 -61 13 -152 q39 -79 102 -113q28 -15 54 -15q106 1 200 164z" glyph-name="ampersand" horiz-adv-x="1092" unicode="&amp;"/>
<glyph d="M266 709q22 0 22 -20q-1 -7 -4 -14q-3 -6 -30 -49q-85 -134 -118 -205q-4 -10 -8 -5q-1 3 0 7q32 68 98 252q3 8 4 11q13 22 36 23z" glyph-name="quotesingle" horiz-adv-x="164" unicode="'"/>
<glyph d="M182 327q108 236 335 386q66 44 136 76q10 5 12 0q0 -5 -6 -9q-253 -118 -402 -371q-26 -44 -47 -89q-99 -216 -80 -404q10 -105 58 -179q4 -6 -3 -9q-5 -2 -8 1q-88 132 -67 338q13 134 72 260z" glyph-name="parenleft" horiz-adv-x="400" unicode="("/>
<glyph d="M200 191q-108 -236 -335 -386q-66 -44 -136 -76q-10 -5 -12 0q0 5 6 9q253 118 402 371q26 44 47 89q99 216 80 404q-10 105 -58 179q-4 6 3 9q5 2 8 -1q88 -132 67 -338q-13 -134 -72 -260z" glyph-name="parenright" horiz-adv-x="400" unicode=")"/>
<glyph d="M163 453q0 1 11 12q49 56 61 79l-12.5 -2.5t-15 -3.5t-15.5 -4.5t-16 -5.5t-15 -5.5t-13.5 -4.5t-11.5 -4t-8 -3l-3 -1q-31 -3 -46 19q-1 3 -2 5q4 18 27 27q9 3 17 4q1 0 15 -3q73 -16 99 -15q-7 10 -21.5 24t-27.5 25t-24 20l-12 10q-19 28 -5 49q2 3 3 4q14 9 34 -7 q8 -7 14 -15q1 -1 8 -23q22 -63 34 -84q7 15 25 103q1 7 2 9q12 28 38 30q4 0 6 -1q12 -6 12 -30q-1 -12 -6 -22q-1 -2 -15 -17q-47 -53 -58 -74q6 1 13 2.5t14.5 3.5t16 4.5t16.5 5.5t15 5.5t13.5 4.5t11.5 4t8 3l3 1q31 3 45 -19l3 -6q-4 -16 -26 -25q-9 -4 -18 -5 q-1 0 -12 2q-75 17 -103 15q6 -8 16.5 -19t22 -20.5t22 -18t17.5 -14.5l8 -6q19 -29 5 -50l-4 -4q-13 -8 -33 7q-8 7 -14 16q-1 1 -9 23q-22 63 -34 83q-2 -5 -4.5 -12t-4 -14.5t-3.5 -16t-3.5 -16t-3 -15.5t-2.5 -14t-2 -11t-2 -8l-1 -4q-12 -28 -38 -30q-4 0 -6 1 q-12 6 -12 30q1 12 6 22z" glyph-name="asterisk" horiz-adv-x="351" unicode="*"/>
<glyph d="M263 416q7 9 19 4q4 -2 5 -4q-7 -94 -7 -165q68 0 163 6q9 -7 4 -19q-2 -4 -4 -5q-94 7 -163 7q0 -74 7 -164q-5 -9 -19 -4q-3 2 -5 4q3 49 3 164q-73 0 -163 -7q-9 5 -4 19q2 3 4 5q95 -6 163 -6q0 117 -3 165z" glyph-name="plus" horiz-adv-x="558" unicode="+"/>
<glyph d="M91 33h-2q-16 -23 -43 -32q-6 -2 -10 -2q-16 1 -26 13q-10 17 12 57q9 15 16 21q13 9 46 9q32 -1 43 -13q11 -14 0 -48l-5 -10q-36 -67 -154 -114q-2 0 -2 3q68 33 111 94q8 12 14 22z" glyph-name="comma" horiz-adv-x="247" unicode=","/>
<glyph d="M273 251q103 0 201 6q9 -6 -2 -20q-2 -3 -4 -4q-95 7 -200 7q-106 0 -200 -7q-9 5 2 20q2 3 4 4q99 -6 199 -6z" glyph-name="hyphen" horiz-adv-x="538" unicode="-"/>
<glyph d="M12 7q-10 17 7 57q10 23 22 30q13 7 42 7q31 0 38 -10q5 -37 -19 -73q-7 -9 -12 -13q-10 -6 -37 -6q-33 1 -41 8z" glyph-name="period" horiz-adv-x="247" unicode="."/>
<glyph d="M219 313q-30 -46 -108 -163q-185 -275 -248 -376q-20 -1 -23 1l-5 5q149 206 373 541q295 456 323 499q17 0 25 -6l3 -3q-123 -164 -340 -498z" glyph-name="slash" horiz-adv-x="356" unicode="/"/>
<glyph d="M520 706q54 24 146 36q20 2 32 2q63 0 111 -39q16 -14 24 -29q49 -71 34 -187q-12 -88 -61 -172q-96 -161 -281 -264q-28 -16 -53 -27q-82 -30 -153 -39q-12 -1 -20 -1q-66 0 -118 35q-20 15 -29 30q-58 84 -37 202q12 69 52 137q86 144 256 259q56 38 97 57zM470 34 q70 33 102 60q74 62 158 207q68 121 62 243q-3 64 -28 101q-36 56 -128 68q-17 2 -33 2q-43 0 -77 -16q-87 -42 -146 -103q-68 -70 -136 -188q-65 -117 -50 -232q7 -53 30 -86q28 -44 110 -63q28 -6 54 -6q50 0 82 13z" glyph-name="zero" horiz-adv-x="912" unicode="0"/>
<glyph d="M250 609q142 65 228 129q14 10 21 8q9 -5 4 -14q-345 -614 -362 -646q-31 -57 3 -72q20 -8 59 -8q4 0 4 -3q-2 -2 -5 -3q-14 0 -81 2q-55 2 -65 2q-11 0 -74 -2q-56 -2 -65 -2q-6 0 -2 4q2 2 4 2q79 0 133 68q11 15 22 32q49 78 279 490q12 22 15 27q10 22 -4 23 q-20 -1 -109 -43q-6 -3 -8 0q0 4 3 6z" glyph-name="one" horiz-adv-x="381" unicode="1"/>
<glyph d="M311 0q-129 0 -326 -4h-29q-6 0 -6 11q1 4 3 6q431 218 586 330q124 90 155 161q39 91 -14 151q-47 53 -143 53q-114 0 -172 -83q-31 -45 -55 -120q-14 -43 -39 -51q-9 -2 -18 -2q-49 2 -22 63q40 86 144 149q109 67 225 67q110 0 163 -64q53 -66 15 -160 q-27 -63 -170 -150q-30 -18 -271 -153q-137 -76 -239 -139l168 1q204 0 288 44q50 27 106 98q3 3 5 6q4 5 7 3q1 -3 -1 -7q-7 -10 -39 -61q-56 -91 -78 -123q-15 -21 -29 -23q-3 0 -207 -3h-7z" glyph-name="two" horiz-adv-x="795" unicode="2"/>
<glyph d="M24 151q17 52 92 86q32 15 66 21q3 1 4 -1q0 -2 -2 -4q-68 -13 -87 -73q-16 -85 66 -134q59 -35 133 -35q98 0 176 64q35 30 54 65q47 90 18 177q-27 79 -101 100q-24 7 -49 7q-45 0 -108 -37q-33 -20 -46 -20q-19 2 -20 17q0 19 27 24h2q216 36 286 64q72 29 100 75 q41 69 10 130q-38 59 -110 63q-131 0 -176 -123q-3 -8 -5 -15q-14 -42 -32 -49q-9 -3 -18 -3q-32 0 -33 26q1 13 8 27q52 95 188 133q60 16 115 15q86 0 133 -57q49 -60 12 -134q-4 -8 -8 -15q-31 -50 -132 -77q-30 -8 -101 -22q-50 -11 -77 -17q56 7 72 7q85 0 127 -62 q48 -72 2 -173q-9 -20 -21 -38q-42 -68 -164 -129q-120 -59 -211 -59q-101 0 -157 55q-51 50 -33 121z" glyph-name="three" horiz-adv-x="733" unicode="3"/>
<glyph d="M275 4q-27 0 -107 -3q-41 -1 -48 -1q-3 0 -4 2q0 3 5 4q81 0 128 49q18 19 36 48q15 23 100 168l-331 2q-6 0 -5 9q2 3 3 4q280 184 575 404q38 29 68 52q14 11 24 7q8 -7 -1 -22q-32 -48 -231 -401h66q84 0 123 31q25 20 58 67q4 4 9 0q2 -3 0 -6q-31 -37 -103 -137 q-9 -10 -25 -10h-159q-84 -150 -98 -177q-29 -59 3 -76q22 -12 68 -12q4 0 4 -3q-2 -2 -5 -3q-12 0 -60 2q-68 2 -93 2zM600 643q10 17 4 17q-7 -1 -36 -23l-374 -265l-16 -12q-27 -20 -39 -31q18 -4 81 -4h196q46 78 184 318z" glyph-name="four" horiz-adv-x="741" unicode="4"/>
<glyph d="M180 -25q-109 0 -155 57q-35 43 -17 105q15 50 93 94q48 26 94 34q6 1 6 -4l-3 -3q-88 -15 -113 -64q-7 -14 -10 -29q-18 -65 46 -109q55 -38 136 -38q159 0 243 115q12 17 23 35q50 95 16 179q-31 75 -113 90q-17 3 -34 3q-89 -1 -186 -73q-31 -23 -38 -26q-5 -1 -8 -1 q-17 2 -18 18q0 16 21 21q5 1 10 1q25 0 46 29q3 4 5 8l196 303q6 6 12 7h324q65 0 96 36q13 15 27 41q4 5 7 2q1 -3 0 -6l-72 -130q-9 -12 -25 -12q-12 0 -156 2q-207 2 -232 2q-6 -1 -10 -5q-150 -224 -171 -262q0 -4 2 -4q3 0 23 9q89 49 150 61q34 7 66 7q86 0 135 -65 q53 -71 20 -164q-9 -24 -22 -46q-40 -67 -157 -135q-144 -83 -257 -83z" glyph-name="five" horiz-adv-x="720" unicode="5"/>
<glyph d="M310 -20q-84 0 -138 57q-7 8 -13 15q-81 113 -22 260q16 38 39 78q130 217 443 320q139 45 290 60q10 1 12 -3q1 -2 -4 -5q-3 -1 -6 -1q-384 -37 -575 -250q-41 -46 -74 -99q-16 -29 -18 -32q49 39 109 66q95 43 179 43q75 0 122 -56q10 -12 16 -24q48 -88 18 -183 q-11 -33 -30 -63q-42 -73 -148 -126q-17 -9 -38 -18q-85 -39 -162 -39zM211 296q-39 -89 -2 -175q8 -17 18 -31q53 -75 148 -80h11q50 0 81 14q65 28 104 84q18 27 35 63q32 76 7 167q-7 25 -16 41q-48 71 -140 77q-50 3 -100 -16q-89 -37 -134 -120q-7 -12 -12 -24z" glyph-name="six" horiz-adv-x="810" unicode="6"/>
<glyph d="M159 -91q-33 0 -35 29q-1 19 12 39q111 165 450 506q98 99 180 176h-346q-110 0 -174 -68q-17 -19 -35 -45q-3 -6 -8 1q-1 4 0 6q14 18 44.5 61t53.5 77l23 34q3 4 41 3q35 -1 69 -1h408l3 -10q-287 -267 -395 -390q-144 -162 -224 -339q-5 -12 -10 -23q-18 -44 -37 -52 q-9 -4 -20 -4z" glyph-name="seven" horiz-adv-x="686" unicode="7"/>
<glyph d="M256 558q25 64 130 123q115 66 214 66q115 0 164 -66q34 -49 14 -105q-26 -63 -119 -113q-39 -21 -115 -54l-7 4q121 51 155 101q14 21 22 49q15 55 -32 101q-50 47 -138 47q-129 0 -198 -72q-25 -26 -36 -56q-22 -57 53 -107q14 -10 113 -62q105 -56 134 -107 q31 -58 -4 -132q-25 -51 -113 -110q-129 -88 -241 -88q-136 0 -195 71q-41 52 -23 118q27 95 260 206q24 11 53 24q-85 48 -97 97q-7 31 6 65zM101 194q-14 -69 51 -121q65 -50 167 -50q169 1 227 116q44 98 -43 167q-27 21 -124 73q-14 7 -23 12q-205 -79 -246 -172 q-6 -13 -9 -25z" glyph-name="eight" horiz-adv-x="724" unicode="8"/>
<glyph d="M641 313l8 12q-24 -16 -66 -39q-70 -39 -161 -52q-26 -4 -49 -4q-87 0 -139 61q-3 4 -5 7q-68 78 -31 190q11 33 30 65q56 92 179 152q59 28 140 39q21 3 36 3q68 0 127 -43q20 -15 32 -31q98 -125 -3 -320q-13 -25 -28 -49q-89 -141 -261 -238q-143 -79 -244 -81 q-110 0 -144 64q-19 38 -4 85q21 61 115 84q3 1 3 -1q-1 -2 -2 -3q-33 -17 -45 -55q-19 -69 45 -109q46 -29 113 -29q108 0 196 85q65 63 158 207zM691 411q37 79 14 171q-11 43 -32 69q-51 64 -174 64q-44 0 -88 -16q-62 -32 -93 -73q-18 -23 -35 -55q-38 -74 -13 -162 q12 -41 35 -71q54 -68 153 -68q75 0 120 23q47 25 59 36q29 27 54 82z" glyph-name="nine" horiz-adv-x="818" unicode="9"/>
<glyph d="M12 7q-10 17 7 57q10 23 22 30q13 7 42 7q31 0 38 -10q5 -37 -19 -73q-7 -9 -12 -13q-10 -6 -37 -6q-33 1 -41 8zM129 412q-10 17 7 57q10 23 22 30q13 7 42 7q31 0 38 -10q5 -37 -19 -73q-7 -9 -12 -13q-10 -6 -37 -6q-33 1 -41 8z" glyph-name="colon" horiz-adv-x="247" unicode=":"/>
<glyph d="M129 412q-10 17 7 57q10 23 22 30q13 7 42 7q31 0 38 -10q5 -37 -19 -73q-7 -9 -12 -13q-10 -6 -37 -6q-33 1 -41 8zM91 33h-2q-16 -23 -43 -32q-6 -2 -10 -2q-16 1 -26 13q-10 17 12 57q9 15 16 21q13 9 46 9q32 -1 43 -13q11 -14 0 -48l-5 -10q-36 -67 -154 -114 q-2 0 -2 3q68 33 111 94q8 12 14 22z" glyph-name="semicolon" horiz-adv-x="247" unicode=";"/>
<glyph d="M273 181q97 -42 150 -59q3 -14 -7 -20q-30 16 -150 68l-148 67l-1 10l1 2q20 9 52 23q54 24 98 45q93 41 143 68q10 -8 8 -20q-25 -8 -134 -55q-7 -3 -12 -5q-45 -20 -136 -62q25 -12 67 -31q40 -18 69 -31z" glyph-name="less" horiz-adv-x="558" unicode="&lt;"/>
<glyph d="M275 317q-28 0 -68 1q-64 1 -104 -2q-8 8 -5 22q65 -7 176 -7q106 0 171 4q8 -10 3 -24q-40 7 -150 6h-23zM275 162q-28 0 -68 1q-64 1 -104 -2q-10 3 -6 19q0 2 1 3q65 -7 176 -7q106 0 171 4q10 -8 3 -24q-40 7 -150 6h-23z" glyph-name="equal" horiz-adv-x="558" unicode="="/>
<glyph d="M279 307q-110 47 -146 59q-3 14 7 20q50 -26 146 -68l148 -67l1 -10l-1 -2q-20 -9 -52 -23q-54 -24 -98 -45q-90 -39 -146 -70q-10 8 -8 20q23 8 130 54q10 4 19 8q91 40 135 61q-26 13 -70 33q-38 18 -65 30z" glyph-name="greater" horiz-adv-x="558" unicode="&gt;"/>
<glyph d="M168 708q25 78 139 115q66 21 133 19q162 0 230 -78q56 -66 19 -153q-26 -62 -156 -123q-25 -12 -78 -35q-132 -57 -174 -91q-19 -17 -30 -34q-19 -31 -19 -61q2 -26 25 -40q5 -3 10 -5q55 26 132 87l6 -7q-84 -67 -167 -122q-13 -9 -47 -2q-6 1 -8 2q-30 23 -35 77v4 q-1 46 28 90q34 53 164 112q17 8 52 24q136 60 182 98q33 28 47 57q32 72 -15 130q-53 64 -166 64q-158 0 -194 -91l-4 -14q-14 -68 33 -104q27 -20 64 -20q41 0 98 31l5 -6q-97 -50 -149 -55q-10 -1 -18 -1q-73 0 -101 53q-17 35 -6 79zM136 -1q-33 1 -41 8q-10 17 7 57 q10 23 22 30q13 7 42 7q31 0 38 -10q5 -37 -19 -73q-7 -9 -12 -13q-10 -6 -37 -6z" glyph-name="question" horiz-adv-x="599" unicode="?"/>
<glyph d="M788 -83l3 -2q-97 -96 -227 -125q-44 -10 -86 -10q-194 0 -313 109q-115 107 -115 281q0 196 143 338q116 115 274 147q46 9 89 9q201 0 305 -138q64 -85 65 -179q0 -145 -94 -246q-95 -98 -224 -100q-19 0 -55 14q-5 3 -7 4q-23 26 -27 69v2q-3 47 70 173 q-111 -130 -236 -238q-4 -4 -8 -7q-9 -9 -35 -2q-4 1 -6 2q-40 29 -34 117q3 51 23 99q44 107 153 176q73 46 128 46q39 0 66 -23q17 -14 44 -44q30 28 60 61q5 4 7.5 4t2.5 -2l1 -3q-55 -69 -118 -200q-54 -113 -51 -158q1 -18 28 -52q14 -16 22 -19q102 0 180 82 q88 93 88 233q0 90 -62 175q-97 132 -281 139h-17q-149 0 -280 -95q-140 -101 -179 -254q-13 -52 -13 -104q0 -221 159 -325q108 -70 264 -70q115 0 241 78q29 19 52 38zM358 60q37 11 152 134q77 82 128 153q-58 68 -82 79q-13 6 -28 6q-55 0 -113 -74q-39 -50 -59 -113 q-33 -108 -8 -168q5 -10 10 -17z" glyph-name="at" horiz-adv-x="977" unicode="@"/>
<glyph d="M1133 783h-15q-29 -153 -70 -391q76 -1 188 -1q73 0 121 -2q15 -1 -16 -26q-27 -22 -44 -26q-19 -3 -88 -3q-61 0 -170 5l-19 -128q-10 -70 2 -130q6 -22 40 -33q37 14 120 80q27 22 41 36l6 -7q-85 -80 -169 -138q-14 -9 -25 -16q-13 -8 -42 -1q-3 1 -5 2q-31 23 -35 67 v3q-5 67 -3 92q2 18 5 39q8 55 23 137q-54 3 -169 9q-67 4 -100 6q-140 -171 -150 -181q-138 -154 -196 -195t-129 -41q-101 0 -161 84q-48 69 -38 142q5 29 19 49q62 92 170 144q84 39 173 39q122 0 324 -3l324 389q-94 0 -171 -7q-29 -3 -188 -29q-19 -3 -26 -3 q-13 0 38 52q14 15 17 19q16 8 163 8h182q53 0 360 7h21q23 0 32 -3q0 -20 -25 -47q-9 -10 -18 -16q-18 -4 -217 13q-60 5 -80 5zM338 373q-117 0 -176 -75q-22 -29 -40 -70q-31 -67 3 -143q35 -77 113 -100q26 -8 53 -8q41 0 64 12q46 27 178 178q4 5 7 8q16 17 65 77 q55 68 88 106q-262 15 -355 15zM1062 782l-324 -387l249 -3q41 228 75 390z" glyph-name="A" horiz-adv-x="1349" unicode="A"/>
<glyph d="M857 438q80 46 103 121l2 8q19 86 -38 150q-70 78 -227 78q-290 0 -426 -221q-26 -43 -47 -93q-25 -56 -74 -57q-54 0 -23 55q2 4 4 7q88 137 255 237q189 112 365 108q185 0 250 -96q45 -66 17 -149q-22 -63 -109 -126q-21 -14 -40 -25q70 -31 81 -124q7 -66 -18 -120 q-27 -58 -115 -118q-109 -75 -203 -75q-74 0 -178 1q-41 1 -53 1q-88 1 -284 -3q-46 0 -60 15q-3 27 28 63q11 12 21 18q14 4 96 -21q124 -37 173 -19q7 3 12 6q42 34 96 169q9 22 27 71q29 74 45 114q96 239 205 333q24 20 46 31l7 -2q-37 -18 -128 -234q-8 -19 -23 -55 q-24 -57 -35 -82l-2 -4q104 25 250 38zM362 49q121 -12 282 -2q16 1 31 2q114 10 157 48q25 24 44 69q31 71 2 146q-25 63 -80 85q-88 12 -194 -4q-99 -233 -174 -303q-34 -32 -68 -41z" glyph-name="B" horiz-adv-x="1030" unicode="B"/>
<glyph d="M702 111q-83 -101 -192 -160q-79 -42 -144 -42q-160 0 -242 117q-75 109 -50 264q18 112 86 213q87 127 225 217q164 108 330 108q134 0 243 -80q11 -9 -23 -31q-23 -14 -35 -15q-15 0 -74 32q-114 59 -208 60q-164 0 -309 -157q-43 -46 -78 -101q-94 -149 -82 -306 q10 -144 107 -217q69 -50 165 -50q99 0 208 89q39 32 66 66q3 4 8 0q1 -4 -1 -7z" glyph-name="C" horiz-adv-x="760" unicode="C"/>
<glyph d="M636 -2l-195 2q-72 1 -342 -3q-46 0 -60 15q-3 27 28 63q11 12 21 18q13 4 100 -19q137 -36 187 -13q6 3 11 6q49 34 92 139q11 27 33 87q29 77 46 120q108 270 227 347q10 6 19 11l7 -2q-36 -18 -122 -221q-7 -19 -23 -56q-25 -61 -37 -88q-122 -288 -255 -359 q83 -7 260 0q42 2 73 4q152 11 226 72q54 45 95 132q68 143 28 283q-40 142 -173 209q-94 47 -218 47q-206 0 -313 -95q-70 -62 -117 -175q-14 -55 -74 -56q-50 0 -27 47l8 14q75 116 228 205q180 103 345 99q220 0 339 -136q92 -107 89 -251q-3 -86 -41 -159 q-52 -95 -174 -180q-156 -105 -291 -107z" glyph-name="D" horiz-adv-x="1138" unicode="D"/>
<glyph d="M342 445q68 0 247 2q98 238 232 313q-138 34 -217 34q-182 0 -293 -134q-59 -72 -107 -188q-14 -55 -73 -56q-53 0 -26 50q3 6 6 11q138 215 344 301q119 50 248 50q111 0 331 -53q166 -41 173 -56q5 -13 -21 -39q-10 -9 -16 -11q-18 0 -199 50q-17 4 -56 15 q-56 16 -85 23q-45 -33 -149 -270q-7 -16 -17 -38q44 0 124 2q82 1 108 1q85 0 115 -7q14 -2 -11 -32q-22 -25 -38 -29q-31 -5 -93 -1q-25 2 -222 25q-118 -272 -241 -353q-4 -3 -8 -5q211 -4 308 7q52 5 146 17q76 10 87 10q12 0 -39 -53q-14 -15 -17 -19q-15 -7 -182 -7 h-182q-72 0 -413 -8q-46 0 -60 15q-5 28 35 62q8 6 14 10q12 3 103 -16q151 -32 200 -3q3 2 4 3q51 35 104 164q12 30 37 98q21 57 33 87q-144 16 -238 20q-11 1 -11 3q2 4 15 5z" glyph-name="E" horiz-adv-x="1066" unicode="E"/>
<glyph d="M140 416q-50 0 -27 47l8 14q138 214 342 301q119 50 249 50q112 0 332 -53q165 -41 172 -56q5 -12 -21 -39q-9 -9 -15 -11q-19 0 -200 50q-15 4 -50 14q-62 17 -96 26q-49 -39 -129 -215q-7 -17 -22 -50q-13 -31 -20 -45q115 3 189 3q86 0 116 -7q14 -2 -11 -29 q-22 -23 -38 -26q-31 -5 -93 -1q-41 3 -182 20l-2 -5q-138 -307 -276 -380q-115 -59 -242 -59q-91 0 -106 16q-5 24 31 56q8 7 14 11q12 3 105 -15q152 -30 200 0q2 1 3 2q52 36 115 176q13 30 41 96q30 70 46 106q1 2 2 5q-122 14 -227 19q-12 1 -11 3q1 4 14 5q74 0 237 2 q98 219 209 296q15 10 29 18q-132 33 -213 33q-183 0 -293 -135q-58 -72 -106 -187q-15 -55 -74 -56z" glyph-name="F" horiz-adv-x="965" unicode="F"/>
<glyph d="M397 -2q-176 0 -251 126q-64 107 -32 256q21 90 72 166q86 125 233 203q149 79 319 79q143 0 306 -54q4 -3 5 -6q0 -15 -36 -41q-20 -14 -30 -15q-11 0 -29 6q-17 5 -52 17q-155 53 -236 58q-14 1 -27 1q-191 0 -325 -147q-29 -33 -52 -69q-89 -141 -80 -284t116 -210 q69 -41 168 -43q187 -2 313 156q58 72 97 174q-72 11 -140 12q-76 1 -190 -15l-113 -15q-14 0 14 32q25 26 43 34q11 5 163 5q17 0 253 5q21 0 48 -31q17 -20 15 -33q-108 -153 -233 -414q-17 -36 -29 -62q-19 -41 -193 -103q-27 -9 -34 -12q-9 -3 -9 3q2 4 6 6 q71 28 100 54q15 15 27 32q100 154 178 297q-139 -115 -288 -154q-53 -14 -97 -14z" glyph-name="G" horiz-adv-x="1016" unicode="G"/>
<glyph d="M78 247q53 79 155 136q106 59 210 59q39 0 152 -1q94 -2 144 -2q57 98 82 144q57 107 55 151q0 27 -28 38q-2 1 -3 1q-38 -13 -121 -81q-26 -21 -40 -35l-6 6q62 62 154 128q23 16 40 27q12 8 41 1q4 -1 6 -2q29 -22 35 -69q1 -4 1 -7q3 -43 -69 -169q-42 -74 -78 -134 q236 -4 325 -4q63 106 83 135q104 158 276 237q95 44 182 49q68 4 276 -36q29 -6 37 -8q22 -6 -6 -31q-25 -23 -46 -24q-20 0 -171 33q-123 26 -173 26q-97 0 -175 -71q-64 -59 -134 -174q-12 -20 -82 -136q163 0 210 -2q16 -1 -13 -25q-30 -24 -49 -28q-17 -3 -167 -3h-14 q-28 -48 -77 -139q-56 -102 -54 -151q3 -28 32 -38q37 14 122 82q25 20 39 34l6 -7q-85 -80 -169 -138q-14 -9 -25 -16q-13 -8 -41 -1q-4 1 -6 2q-30 22 -36 69q-1 4 -1 7q-3 38 63 158q1 3 6 11q43 76 73 127q-91 3 -316 19q-110 -182 -134 -218q-94 -143 -240 -225 q-73 -42 -110 -42q-104 0 -181 79q-73 74 -71 163q2 52 31 95zM383 417q-168 -1 -237 -158q-37 -79 3 -173q37 -87 116 -123q38 -17 80 -17q57 0 111 55q53 54 126 174q113 188 134 225q-236 17 -333 17z" glyph-name="H" horiz-adv-x="1337" unicode="H"/>
<glyph d="M464 421q101 218 179 300q44 45 92 67q-67 7 -294 -32q-42 -7 -50 -7q-15 0 13 31q24 26 43 34q12 6 164 6q38 0 355 9q48 0 59 -14q4 -18 -38 -47q-4 -3 -7 -5q-11 -3 -94 11q-131 21 -178 -11q-44 -30 -79 -124q-7 -19 -22 -62q-36 -103 -63 -164q-108 -238 -236 -341 q-24 -20 -47 -32q22 -8 208 19q123 18 154 17q16 -1 5 -24q-14 -33 -50 -45q-14 -5 -27 -5l-139 3q-79 0 -390 -8q-45 0 -59 15q-1 15 28 37q12 8 21 11q10 3 84 -10q54 -9 90 -9q71 1 105 27q45 36 89 143q8 20 25 65q36 92 59 145z" glyph-name="I" horiz-adv-x="732" unicode="I"/>
<glyph d="M562 780q-65 8 -251 -27q-72 -14 -90 -14q-14 0 14 33q26 30 45 37q21 11 128 12h33q51 0 193 9q21 1 37 1q13 0 -14 -29q-29 -29 -45 -30q-122 0 -196 -126q-40 -69 -100 -250q-19 -60 -28 -86q-82 -240 -132 -322q-48 -79 -132 -137q-41 -28 -156 -95q-39 -22 -60 -34 q-21 -13 -25 -7t17 18q1 1 2 1q158 91 231 184q68 86 132 263q20 55 55 161q75 213 163 312q72 80 179 126z" glyph-name="J" horiz-adv-x="394" unicode="J"/>
<glyph d="M755 463l11 8q31 -181 94 -319q11 -25 21 -41q31 -50 68 -64q41 12 133 97l6 -4q-100 -95 -152 -128q-9 -5 -16 -9q-15 -8 -41 -1q-3 1 -4 2q-30 23 -58 71q-50 79 -91 253q-11 48 -18 92q-206 -183 -217 -193q-85 -136 -175 -188q-108 -61 -231 -61q-91 0 -109 17 q-2 18 21 46q10 13 21 20q6 1 81 -17q70 -17 115 -17q71 0 103 22q49 35 106 165q20 44 68 164q140 343 284 405q-66 8 -247 -25q-67 -12 -84 -12q-15 0 15 34q26 28 44 36q13 8 98 8h62q50 0 194 9q21 1 37 1q13 0 -14 -24q-29 -25 -46 -26q-63 0 -104 -54 q-34 -45 -103 -212l-47 -114q-38 -92 -74 -152q248 235 446 399q34 28 58 47q163 123 334 123q26 -1 27 -13q0 -18 -26 -47q-14 -15 -23 -16q-20 0 -68 4q-56 4 -82 4q-64 -1 -141 -57q-75 -55 -276 -233z" glyph-name="K" horiz-adv-x="1116" unicode="K"/>
<glyph d="M991 12l8 -6q-54 -63 -69 -78q-81 -80 -136 -103q-44 -18 -94 -18q-73 0 -233 109q-24 16 -72 50q-46 33 -68 48q-98 -154 -204 -199q-37 -15 -70 -15q-78 0 -121 63q-42 60 -18 126l2 6q21 53 100 100q83 49 163 49q53 -1 150 -55q17 43 95 280q52 159 88 236 q78 176 266 229q72 21 154 21q81 0 187 -30q17 -5 24 -8q23 -10 -11 -42q-23 -22 -37 -23q-24 0 -115 35q-105 40 -160 40q-68 0 -107 -33q-50 -45 -119 -198q-25 -56 -76 -176q-95 -224 -145 -324q-2 -5 -8 -16q-4 -6 -5 -9q27 -16 84 -52q161 -101 235 -128q53 -20 94 -20 q85 0 166 84q15 15 52 57zM117 116q-103 -1 -138 -92q-19 -49 21 -106q43 -61 110 -67h11q67 0 114 59q32 41 69 120q-126 86 -187 86z" glyph-name="L" horiz-adv-x="1008" unicode="L"/>
<glyph d="M1665 792q15 11 18 3q0 -5 -5 -11q-117 -148 -261 -547q-25 -71 -21 -151q3 -28 32 -38q35 13 137 96q29 24 44 39l6 -6q-74 -72 -168 -142q-28 -21 -46 -32q-13 -8 -41 -1q-4 1 -6 2q-30 22 -39 65q-2 7 -2 11q-4 61 32 169q61 175 125 298q9 17 15 27q21 38 51 83 q-22 -21 -85 -82q-351 -338 -467 -465q-10 -11 -19 -87q-1 -8 -2 -12q-2 -9 -41 -8q-19 1 -23 6q-4 4 5 72q3 26 5 46q34 353 31 535q-296 -385 -397 -497q-48 -53 -75 -75q-116 -88 -213 -91q-77 0 -163 21q-27 6 -31 11q-13 16 16 49q15 16 26 20q17 1 110 -20 q146 -33 215 -2q16 8 29 18q82 64 316 366q21 26 61 78q72 93 105 135q-4 161 -33 242q-10 23 -37 35q-3 1 -5 2q-37 -11 -192 -135q-14 -11 -23 -19l-4 6q154 125 199 157q35 25 56 36q15 8 43 1q3 -1 5 -2q27 -26 45 -114q35 -183 5 -581q-7 -104 -17 -179 q130 137 545 535q90 85 139 133z" glyph-name="M" horiz-adv-x="1654" unicode="M"/>
<glyph d="M673 57q-39 -64 -41 -66q-9 -9 -17 -1q-2 2 -2 3l-47 382q-25 210 -42 300l-254 -379q-129 -192 -162 -235q-104 -137 -208 -183q-76 -34 -169 -34q-82 0 -181 32q-22 8 -26 12q-7 10 28 43q23 21 38 26q6 2 74 -21q109 -36 189 -36q90 0 180 94q66 69 211 283 q7 11 15 23l263 390q-25 119 -65 145q-16 9 -34 9q-19 0 -41 -8q-37 -12 -175 -116q-31 -24 -47 -37l-6 7q148 121 244 180q13 8 23 13q27 16 75 14q18 -1 29 -6q46 -20 74 -163q21 -104 47 -332l35 -302q191 313 291 455q139 203 247 261q66 35 147 35q96 0 211 -24 q10 -2 14 -3q3 -2 4 -4q0 -12 -35 -42q-23 -19 -34 -20q-9 0 -16 1q-13 2 -55 10q-132 26 -197 26q-70 0 -147 -80q-53 -56 -133 -172q-112 -159 -305 -480z" glyph-name="N" horiz-adv-x="947" unicode="N"/>
<glyph d="M466 36q198 -3 324 173q13 19 25 38q87 137 81 283q-6 147 -108 217q-70 48 -173 48q-218 -1 -348 -215q-89 -141 -82 -285q8 -146 113 -214q69 -43 168 -45zM408 -2q-183 0 -261 127q-65 106 -33 252q20 91 73 167q77 115 217 201q142 86 258 86q187 0 267 -128 q66 -106 34 -253q-20 -89 -73 -165q-79 -119 -220 -203q-140 -84 -262 -84z" glyph-name="O" horiz-adv-x="972" unicode="O"/>
<glyph d="M358 45q168 0 206 2q29 2 54 5q51 5 171 29q16 3 23 3q13 0 -36 -50q-16 -18 -19 -22q-16 -7 -144 -7h-110q-71 0 -414 -8q-47 0 -59 15q-3 28 49 62q12 3 100 -14q147 -29 195 3q53 36 103 155q14 31 43 106q22 58 35 89q101 253 216 337q13 9 25 16q-59 21 -126 21 q-293 0 -384 -179q-13 -25 -22 -53q-16 -56 -65 -57q-46 0 -19 48q4 7 9 14q65 93 199 173q168 98 312 95q198 3 291 -113q65 -81 54 -179q-6 -40 -23 -71q-45 -84 -163 -123q-59 -19 -120 -20q-70 0 -133 31q-102 -222 -217 -292q-16 -9 -31 -16zM802 342q80 0 129 61 q11 14 18 28q46 88 8 186t-143 143l-10 4q-51 -39 -174 -355q63 -54 145 -65q14 -2 27 -2z" glyph-name="P" horiz-adv-x="1004" unicode="P"/>
<glyph d="M547 136q8 6 9 0q-1 -3 -3 -5q-124 -100 -211 -119q-14 -3 -25 -3q-109 0 -181 82q-81 93 -64 230q13 90 68 180q66 100 201 195q183 129 339 138q10 1 20 1q166 0 249 -113q74 -101 49 -243q-18 -96 -79 -182q-99 -140 -328 -280q-84 -51 -190 -107q19 4 45 4 q100 0 328 -83q231 -85 272 -97q134 -42 214 -42q132 0 243 95q10 9 87 83l7 -3q-66 -74 -120 -120q-97 -86 -165 -109q-40 -13 -83 -13q-128 0 -393 104q-33 13 -97 39q-218 88 -296 103q-30 6 -53 6q-67 0 -160 -44h-1l-1 -1q-40 -19 -167 -98q-25 -16 -34 2q-9 16 10 31 q5 4 11 7q10 4 43 16q142 53 281 118q320 150 468 359q10 15 21 31q71 106 59 235q-12 134 -109 206q-79 58 -194 58q-131 0 -269 -113q-83 -68 -133 -148q-95 -155 -58 -295q28 -108 120 -156q51 -27 111 -27q54 0 154 75q3 2 5 3z" glyph-name="Q" horiz-adv-x="1012" unicode="Q"/>
<glyph d="M-63 -1q-7 14 21 46q11 12 20 18q12 3 104 -17q88 -19 134 -19q40 1 69 21q47 32 90 142q9 24 28 78q34 93 55 145q122 291 281 371q-41 11 -86 11q-188 0 -283 -92q-55 -54 -96 -148q-19 -44 -41 -53q-11 -4 -25 -4q-46 0 -17 50l8 12q64 94 194 174q163 99 299 96 q164 3 241 -95q58 -74 38 -166q-6 -26 -18 -48q-46 -91 -213 -120q-21 -3 -48 -7q17 -159 83 -282q30 -55 65 -71q48 14 137 96l5 -8q-93 -90 -178 -137q-13 -8 -38 -1q-3 1 -4 2q-29 22 -63 89q-68 135 -84 311q-1 15 11 17h10h33q38 -1 51 -1q107 0 156 86q3 6 6 11 q41 87 -2 170q-42 78 -137 106q-64 -37 -152 -241q-13 -29 -36 -86q-15 -36 -22 -52q-104 -248 -202 -331q-25 -22 -51 -35q-114 -60 -225 -60q-86 0 -116 20z" glyph-name="R" horiz-adv-x="1001" unicode="R"/>
<glyph d="M231 340l9 -4q-88 -92 -108 -116q-31 -41 -33 -64q13 -25 70 -61q90 -55 181 -55q121 0 208 63q47 35 68 79q45 99 -53 165q-36 24 -152 73q-114 48 -148 86q-39 47 -16 107q26 65 148 134q128 71 234 80q12 1 21 1q107 0 187 -48q37 -23 53 -50q-23 -32 -120 -148 q-41 -50 -66 -85l-6 4q22 32 65 88t66 89q-56 82 -176 103q-34 6 -70 6q-113 0 -201 -60q-56 -38 -74 -86q-24 -63 61 -113q25 -15 139 -65q124 -53 161 -103q45 -60 7 -140q-29 -62 -126 -129q-134 -93 -259 -99h-13q-153 1 -276 121q66 74 219 227z" glyph-name="S" horiz-adv-x="761" unicode="S"/>
<glyph d="M96 528q-48 0 -25 50q3 6 6 11q101 184 304 232q60 14 121 14q73 0 306 -21q155 -14 254 -14q39 0 81 10q5 1 7 1.5t5 1t3 -0.5q10 -3 -25 -38q-17 -18 -27 -23q-41 -22 -106 -22q-56 0 -266 33q-53 -38 -97 -143q-13 -31 -42 -106q-25 -67 -40 -104q-117 -278 -298 -371 q-81 -41 -170 -41q-79 0 -149 19q-18 6 -22 10q-12 16 18 49q15 16 26 20q15 2 94 -22q135 -41 206 -18q29 9 51 27q46 36 86 136q9 23 29 76q29 78 47 124q115 271 253 346q-264 43 -334 43q-102 0 -169 -99q-32 -47 -63 -123q-18 -45 -35 -53q-11 -4 -29 -4z" glyph-name="T" horiz-adv-x="758" unicode="T"/>
<glyph d="M836 424q-134 -217 -158 -267q-29 -60 -28 -95q3 -25 25 -47q7 -6 13 -8q35 10 175 126q15 12 25 21l5 -7q-178 -155 -234 -185q-12 -8 -38 0q-4 1 -5 2q-42 36 -48 84q-3 58 53 157q-100 -112 -217 -190q-95 -63 -151 -63q-86 0 -141 79q-39 57 -43 130q-5 93 86 229 q27 40 90 124q105 140 123 170q32 53 31 84q-3 26 -27 55q-35 -10 -163 -105q-34 -25 -50 -39l-6 8q73 64 185 140q38 26 60 38q15 8 40 -1q3 -1 4 -2q25 -23 35 -85q6 -48 -80 -169q-9 -14 -95 -129q-117 -159 -144 -236q-14 -42 -12 -76q7 -88 61 -139q41 -39 98 -39 q66 0 219 133q70 61 114 112q16 27 56 90q50 79 79 127q29 47 73 117q74 119 84 148q7 23 6 50q-3 27 -28 55q-34 -10 -157 -99q-38 -28 -55 -43l-6 8q73 63 185 140q37 26 59 38q15 8 40 -1q3 -1 4 -2q22 -18 35 -80q1 -3 1 -5q2 -45 -36 -116q-24 -45 -142 -237z" glyph-name="U" horiz-adv-x="928" unicode="U"/>
<glyph d="M144 -84q-8 -10 -20 -5q-6 4 -5 11q48 238 119 689q1 6 2 10q18 113 0 151q-10 20 -36 23h-8q-43 1 -178 -26q-60 -12 -77 -10q-16 3 15 39q12 14 20 19q10 6 165 5h17h104q67 0 388 9h26q23 0 32 -3q0 -20 -25 -47q-9 -10 -18 -16q-14 -4 -174 11q-118 11 -192 13 q11 -15 14 -28q12 -60 -1 -134q-36 -233 -109 -620q459 534 706 817q52 59 161 205q9 11 14 18q11 9 27 -7q11 -13 3 -22q-53 -40 -183 -188q-6 -7 -11 -13q-493 -564 -635 -732q-74 -87 -141 -169z" glyph-name="V" horiz-adv-x="608" unicode="V"/>
<glyph d="M974 775q-20 -4 -226 9q-36 -242 -94 -798q419 581 595 843q90 132 139 217q12 23 31 11q17 -11 9 -30q-2 -5 -5 -8q-71 -79 -158 -199q-455 -638 -655 -923q-7 -10 -31 -5q-15 5 -15 13q31 181 83 656q7 59 11 100q-310 -440 -524 -762q-7 -10 -27 2q-11 8 -11 16 q125 617 140 714q19 119 4 150q-18 22 -44 23q-45 1 -155 -21q-82 -17 -100 -14q-16 3 15 39q12 14 20 19q10 5 166 4h16h465q87 0 335 9q17 1 27 1q23 0 32 -4q0 -19 -24 -46q-10 -10 -19 -16zM189 5q369 535 542 780q-227 14 -437 15q15 -13 19 -29q10 -50 -5 -135 q-22 -145 -119 -631z" glyph-name="W" horiz-adv-x="1025" unicode="W"/>
<glyph d="M466 4q-36 31 -48 52q-20 38 2 198q2 12 4 27l15 102l-251 -200q-132 -105 -225 -196q-20 -19 -35 -5q-14 14 -1 32q5 5 10 9q158 104 243 171l261 204q23 148 30 205q12 107 -12 144q-14 20 -42 30q-43 -14 -142 -82q-29 -21 -46 -35l-6 7q108 86 207 143q12 7 22 12 q17 9 33 -1q5 -5 14 -13q24 -23 29 -34q28 -48 13 -162q-20 -124 -27 -176q198 155 323 258q106 86 225 197q20 20 36 5q14 -14 1 -32q-5 -5 -10 -9q-115 -74 -236 -169q-172 -130 -341 -265q-8 -53 -20 -149q-5 -36 -7 -50q-13 -115 6 -143q14 -21 44 -31q41 14 137 81 q30 21 46 35l7 -7q-142 -109 -227 -154q-15 -8 -30 0q-1 1 -2 1z" glyph-name="X" horiz-adv-x="756" unicode="X"/>
<glyph d="M256 3q-74 0 -213 -2q-73 -1 -94 -1q-14 0 11 27q27 28 43 28q146 0 219 58q51 41 112 151q11 19 33 62q36 66 57 103q-37 220 -95 302q-18 23 -63 38q-43 -14 -144 -83q-28 -20 -44 -33l-5 7q151 117 241 165q18 8 33 -1q28 -18 48 -47l3 -6q76 -138 97 -330 q43 36 125 104q143 117 195 163q38 34 105 92q87 76 113 101q20 21 36 7q15 -13 1 -32q-4 -5 -9 -9q-125 -83 -236 -170q-201 -157 -337 -287q-84 -155 -112 -193q-52 -72 -137 -118q-42 -23 -105 -49q54 -1 277 19q45 4 62 4q16 0 -7 -31q-22 -30 -42 -37q-9 -5 -73 -3 q-49 1 -95 1z" glyph-name="Y" horiz-adv-x="599" unicode="Y"/>
<glyph d="M552 53q76 2 101 16q33 19 67 98q15 35 43 109q23 58 66 59q40 0 24 -44q-3 -9 -8 -18q-77 -139 -201 -217q-93 -59 -181 -59q-76 0 -266 22q-151 17 -234 10q-14 0 8 26q24 26 40 27q113 0 246 124q44 41 172 183q146 161 246 234q114 83 230 111q-13 -2 -29 -2 q-55 0 -215 36q-127 29 -179 29q-69 0 -94 -16q-34 -21 -73 -112q-10 -23 -23 -55q-19 -47 -47 -54q-8 -2 -17 -2q-35 0 -30 34q3 13 11 28q103 183 316 207q30 4 61 4q60 0 194 -26q88 -17 139 -17q39 0 81 10q5 1 7 1.5t5 1t3 -0.5q8 -3 -23 -36q-29 -28 -54 -31 q-92 -9 -213 -129q-28 -27 -159 -171q-155 -171 -272 -251q-102 -70 -205 -101q80 16 247 -7q158 -23 216 -21z" glyph-name="Z" horiz-adv-x="892" unicode="Z"/>
<glyph d="M-72 -270l239 516l237 525q7 7 12 8h70q51 -1 77 -1h69q45 1 68 1q7 0 2 -6q-4 -3 -7 -4q-27 -1 -85 0q-37 1 -55 1h-115q-6 0 -7 -3l-239 -521l-237 -512q2 -2 5 -3h115q18 0 56 1q59 1 86 0q7 0 1 -6q-4 -3 -7 -4h-67q-45 1 -68 1q-26 0 -79 -1h-68q-6 1 -3 8z" glyph-name="bracketleft" horiz-adv-x="400" unicode="["/>
<glyph d="M136 263q-70 359 -120 554q16 3 25 -1l4 -2q22 -123 104 -550q83 -401 118 -544q-12 -4 -20 0q-1 1 -3 2q-3 2 -4 3q-27 152 -104 538z" glyph-name="backslash" horiz-adv-x="309" unicode="\"/>
<glyph d="M212 246l-235 -516q-5 -7 -11 -8h-69q-50 1 -76 1h-66q-47 -1 -70 -1q-7 0 -1 6q4 3 7 4q27 1 83 0q35 -1 52 -1h115q7 0 9 3l235 512l241 521q-2 2 -7 3h-115q-18 0 -55 -1q-58 -1 -85 0q-7 0 -2 6q4 3 7 4q23 0 69 -1h68q26 0 77 1h70q6 -1 2 -8z" glyph-name="bracketright" horiz-adv-x="400" unicode="]"/>
<glyph d="M436 357q-4 2 -6 0q-48 -57 -131 -120q-2 -1 -3 -2q-27 -17 -39 -17q-19 3 -20 16v2q0 14 21 29q1 1 2 1q12 7 46 27q88 51 123 74q6 4 11 -1q67 -83 86 -103l4 -4q21 -21 20 -33q0 -15 -15 -20q-4 -1 -7 -1q-23 3 -37 27q-8 16 -26 58q-18 43 -29 67z" glyph-name="asciicircum" unicode="^"/>
<glyph d="M248 -20q172 0 271 6q9 -6 1 -19q-3 -4 -5 -5q-95 7 -270 7t-270 -7q-9 5 0 20q2 3 4 4q98 -6 269 -6z" glyph-name="underscore" horiz-adv-x="678" unicode="_"/>
<glyph d="M487 529q-37 39 -148 122q-12 9 -15 12q-12 11 -13 19q0 18 3 21q4 3 20 3q20 -1 26 -6q3 -4 20 -27q71 -98 112 -137q2 -3 3 -5q-1 -3 -4 -4q-3 1 -4 2z" glyph-name="grave" unicode="`"/>
<glyph d="M303 84q-4 48 63 146q30 45 35 53q-130 -140 -293 -280q-12 -9 -36 -2q-3 1 -4 2q-46 35 -34 141q7 57 28 110q48 118 174 199q92 59 160 59q51 0 86 -25q22 -17 50 -48q36 31 70 68q9 9 9 -2q-78 -97 -155 -234q-71 -128 -69 -178q1 -25 28 -39q4 -2 8 -3q51 23 107 75 l13 13l6 -7q-92 -89 -158 -129q-13 -8 -48 -2q-6 2 -8 3q-29 34 -32 80zM131 53q44 12 198 169q85 87 149 164q-70 88 -117 99q-11 3 -23 3q-60 0 -125 -79q-51 -63 -77 -142q-41 -126 -17 -193q5 -13 12 -21z" glyph-name="a" horiz-adv-x="579" unicode="a"/>
<glyph d="M524 516q27 -4 49 -49q6 -13 9 -25q18 -68 -28 -169q-7 -14 -13 -25q-62 -110 -204 -199q-99 -54 -154 -54q-59 1 -115 77l-39 -64q-3 0 -10 -1q-46 -5 -50 15q-1 11 5 27q14 22 225 398q67 120 87 151q61 101 180 182q165 112 346 112q86 0 116 -5q22 -3 5 -35 q-16 -30 -35 -34q-3 -1 -4 -1q-14 0 -149 12q-59 5 -103 5q-76 0 -121 -30q-68 -47 -162 -208q-20 -33 -220 -390q105 104 241 220q104 89 144 90zM250 36q47 1 83 19q60 49 88 91q22 32 40 72q52 114 42 193q-1 6 -2 11q-7 32 -28 43q-2 1 -3 1q-29 -1 -85 -48 q-167 -141 -261 -252q-12 -14 -21 -26q65 -103 147 -104z" glyph-name="b" horiz-adv-x="615" unicode="b"/>
<glyph d="M154 -6q-57 0 -92 45q-11 15 -17 31q-19 72 1 138q14 44 42 92q50 89 178 168l32 18q58 31 121 31q76 0 91 -46q3 -9 3 -18q0 -34 -39 -52q-10 -5 -19 -6q-24 90 -108 91q-24 0 -44 -6q-73 -52 -125 -137q-69 -116 -59 -232q16 -53 62 -66q47 -13 115 17q2 1 3 1 q44 20 93 69q13 13 22 24l9 -5q-57 -67 -142 -114q-77 -43 -127 -43z" glyph-name="c" horiz-adv-x="493" unicode="c"/>
<glyph d="M611 618q94 134 278 219q48 21 96 37q79 18 169 18q85 0 115 -5q23 -3 2 -35q-23 -30 -43 -35q-16 0 -146 12q-60 6 -105 6q-82 0 -132 -33q-65 -43 -174 -200l-70 -105q-147 -229 -197 -347q-14 -36 -15 -52q0 -32 20 -46q6 -4 13 -5q53 22 110 74l14 14l6 -7 q-87 -82 -158 -125q-13 -8 -47 -1q-5 1 -7 2q-24 25 -31 68q-2 10 -1 16q4 52 119 234q4 7 6 10l8 10q-104 -130 -276 -288q-31 -29 -57 -51q-12 -9 -36 -2q-3 1 -4 2q-46 35 -34 141q7 57 28 110q48 118 174 199q92 59 160 59q55 0 103 -49l5 -5q103 155 107 160zM131 53 q46 13 220 201q65 71 119 136q-64 80 -100 93q-15 5 -32 5q-60 0 -125 -79q-51 -63 -77 -142q-41 -126 -17 -193q5 -13 12 -21z" glyph-name="d" horiz-adv-x="594" unicode="d"/>
<glyph d="M488 467q9 -58 -114 -148q-87 -64 -259 -162q-1 -24 0 -46q17 -55 58 -66q45 -13 116 18q3 1 4 2q39 18 95 71q17 16 28 30l9 -5q-61 -72 -155 -124q-77 -43 -129 -43q-43 0 -79 42q-15 18 -22 37q-22 82 24 179q12 24 26 48q44 79 140 149q24 17 45 29q67 36 124 36 q71 0 86 -38q2 -5 3 -9zM409 383q16 43 -25 77q-40 33 -86 20q-2 -1 -4 -1q-53 -35 -108 -128q-58 -97 -70 -184q209 123 256 167q29 26 37 49z" glyph-name="e" horiz-adv-x="486" unicode="e"/>
<glyph d="M-291 -85q-3 -33 4 -66q12 -52 46 -69q12 -6 23 -6q38 0 64 25q40 38 118 178q24 44 110 211q95 184 137 263h-63q-11 3 -5 10q1 2 2 2l105 60q23 44 41 71q127 200 290 271q74 32 148 32q98 0 157 -23q15 -6 -8 -32q-23 -25 -43 -26q-22 0 -94 20q-65 19 -117 19 q-66 0 -113 -42q-56 -52 -149 -216l-49 -89q21 0 49.5 1t47 1.5t36.5 1t18 -0.5q9 -3 -19 -34q-24 -27 -37 -29q-3 0 -43 1q-52 1 -83 1q-34 -64 -99 -188q-99 -190 -148 -279q-79 -143 -198 -203q-53 -27 -95 -27q-77 0 -96 53q-5 13 -5 27q0 46 38 70q14 9 30 12z" glyph-name="f" horiz-adv-x="395" unicode="f"/>
<glyph d="M-53 -396q-126 2 -179 53q-13 13 -20 28q-25 60 80 144q34 27 178 122q44 28 73 49h-4.5h-4.5t-3.5 0.5l-3 1t-3.5 0.5l-1 1q-45 34 -35 138q7 57 29 112q48 117 175 199q95 61 164 61q42 0 69 -23q19 -17 57 -61q50 43 86 76l7 -4q-52 -62 -88 -118q-146 -232 -192 -454 q-4 -20 -11 -56q-18 -96 -38 -130q-1 -1 -1 -2q-46 -78 -181 -116q-77 -22 -153 -21zM99 5q-150 -107 -194 -148q-99 -93 -71 -164q31 -75 151 -79h12q98 0 174 84q12 14 23 29q25 38 48 145q34 161 75 259q35 81 84 160q-174 -178 -299 -283zM124 51q67 45 190 165 q96 94 152 167q-65 80 -91 95q-19 11 -39 11q-58 0 -125 -75q-58 -66 -84 -148q-45 -145 -10 -206q4 -5 7 -9z" glyph-name="g" horiz-adv-x="571" unicode="g"/>
<glyph d="M516 513q84 -19 -4 -189q-17 -34 -40 -72q-57 -101 -59 -105q-17 -37 -16 -57q3 -31 29 -40q50 17 109 70l15 15l6 -7q-81 -78 -158 -125q-14 -8 -40 -1q-4 1 -5 2q-30 23 -37 71q-1 5 -1 8q-2 33 63 139q21 34 27 45q85 145 68 187q-4 8 -11 15q-55 -12 -161 -107 q-106 -96 -181 -206q-13 -19 -77 -132q-5 -10 -9 -16l-39 -2q-31 4 -18 41q1 1 1 2q14 22 225 398q67 120 87 151q61 101 180 182q165 112 346 112q86 0 116 -5q22 -3 5 -35q-16 -30 -35 -34q-3 -1 -4 -1q-14 0 -149 12q-59 5 -103 5q-76 0 -121 -30q-68 -47 -162 -208 q-23 -38 -214 -382q106 130 243 231q84 61 124 68z" glyph-name="h" horiz-adv-x="600" unicode="h"/>
<glyph d="M292 430q0 -28 -67 -122q-31 -44 -41 -61q-60 -97 -68 -115q-14 -29 -13 -47q1 -22 37 -35q4 -1 6 -2q48 17 112 79l8 8l6 -7q-86 -83 -155 -125q-13 -8 -47 -1q-6 1 -8 2q-32 24 -40 65q-1 5 -1 9q-3 34 68 147q18 30 23 38q17 28 45 70q44 68 50 90q5 21 -17 38 q-7 5 -13 6q-35 -12 -105 -68q-11 -9 -19 -16l-7 5q58 56 150 116q9 5 15 9q17 9 33 3q24 -12 41 -57q7 -17 7 -29zM302 586l-6 6q161 165 241 277q11 13 23 3q9 -9 0 -20q-37 -42 -219 -226q-22 -22 -39 -40z" glyph-name="i" horiz-adv-x="309" unicode="i"/>
<glyph d="M190 470q-42 -11 -110 -69q-13 -11 -23 -21l-7 6q50 52 154 119q11 7 19 12q17 9 37 1q26 -13 26 -80q-1 -14 -2 -25q-1 -20 -90 -175q-42 -75 -63 -111q-99 -174 -200 -250q-35 -26 -88 -54q-113 -61 -246 -61q-97 0 -112 17q-8 24 27 57q8 8 14 12q13 4 110 -15 q157 -30 206 -2l6 4q60 44 147 187q13 21 77 132q115 198 132 244q5 13 6 21q4 33 -14 48zM303 586l-6 6q161 165 241 277q11 13 23 3q9 -9 0 -20q-37 -42 -219 -226q-22 -22 -39 -40z" glyph-name="j" horiz-adv-x="303" unicode="j"/>
<glyph d="M33 8l-39 -2q-31 4 -18 41q1 1 1 2q14 22 225 398q67 120 87 151q61 101 180 182q165 112 346 112q86 0 116 -5q22 -3 5 -35q-16 -30 -35 -34q-3 -1 -4 -1q-14 0 -149 12q-59 5 -103 5q-76 0 -121 -30q-68 -47 -162 -208q-38 -65 -172 -306q147 159 254 215q36 18 58 18 q34 -8 61 -51q23 -39 16 -67q-12 -48 -57 -85q-11 -8 -21 -14q-43 -28 -159 -45q-27 -5 -87 -13q51 -8 79 -45q11 -14 30 -87q10 -38 19 -54q13 -18 38 -20q43 15 112 79q10 9 18 17l6 -7q-87 -84 -156 -126q-12 -8 -50 -1q-28 5 -36 16q-17 25 -34 102q-12 53 -26 73 q-31 41 -84 40q-6 -1 -12 -1q-70 -127 -126 -226zM500 408q4 26 -20 57q-16 19 -32 21q-56 -13 -170 -117q-66 -61 -110 -118l-5 -10q330 45 337 167z" glyph-name="k" horiz-adv-x="606" unicode="k"/>
<glyph d="M294 603q63 103 182 183q160 106 338 106q86 0 116 -5q22 -3 5 -35q-16 -30 -35 -34q-3 -1 -4 -1q-14 0 -149 12q-59 5 -103 5q-75 0 -120 -30q-68 -46 -162 -208q-84 -138 -199 -348q-62 -113 -62 -154v-4q2 -29 30 -39q2 -1 3 -1q50 17 111 75l10 10l6 -7 q-86 -83 -155 -125q-13 -8 -43 -1q-4 1 -6 2q-30 25 -34 80q-3 44 70 176q118 215 199 340q1 2 2 3z" glyph-name="l" horiz-adv-x="303" unicode="l"/>
<glyph d="M454 156q-46 -72 -90 -152q-43 0 -47 1q-24 8 -14 41q11 19 42 69q101 165 126 245q12 37 13 66q1 22 -9 36q-57 -17 -160 -116q-92 -88 -162 -190q-29 -43 -94 -152q-39 -2 -41 -2q-32 4 -20 41q1 1 1 2q100 137 154 258q33 73 31 110q-3 33 -32 42q-44 -11 -100 -64 q-10 -9 -17 -17l-7 7q83 80 162 125q39 21 62 -44q9 -26 11 -48q4 -51 -77 -192q-3 -4 -8 -13q107 136 241 238q71 54 110 66q41 -9 34 -87q-7 -89 -69 -195q102 126 240 223q68 48 105 59q67 -15 18 -134q-22 -52 -66 -127q-58 -100 -67 -127q-8 -21 -7 -35q3 -31 29 -40 q50 17 111 75l10 10l6 -7q-86 -83 -155 -125q-14 -8 -40 -1q-4 1 -5 2q-30 23 -37 71q-1 5 -1 8q-2 33 64 142q19 32 25 42q80 137 72 174q-3 11 -12 20q-57 -18 -155 -104q-106 -93 -175 -201z" glyph-name="m" horiz-adv-x="913" unicode="m"/>
<glyph d="M59 4q-39 -2 -41 -2q-32 4 -20 41q1 1 1 2q100 137 154 258q33 73 31 110q-3 33 -32 42q-44 -11 -100 -64q-10 -9 -17 -17l-7 7q83 80 162 125q39 21 62 -44q9 -26 11 -48q4 -50 -75 -188q-2 -4 -6 -11q-3 -5 -4 -7q104 132 243 237q75 56 115 68q84 -19 -4 -189 q-17 -34 -40 -72q-57 -101 -59 -105q-17 -37 -16 -57q3 -31 29 -40q50 17 111 75l10 10l6 -7q-86 -83 -155 -125q-14 -8 -40 -1q-4 1 -5 2q-30 23 -37 71q-1 5 -1 8q-2 33 63 139q21 34 27 45q80 138 70 175q-4 11 -13 20q-57 -17 -159 -111q-98 -90 -170 -195 q-29 -43 -94 -152z" glyph-name="n" horiz-adv-x="620" unicode="n"/>
<glyph d="M441 200q-53 -94 -183 -166q-74 -38 -108 -40q-54 0 -92 44q-14 17 -20 35q-22 82 24 179q12 24 26 48q44 78 137 148q26 20 49 33q67 36 118 36h1q50 0 85 -45q12 -17 18 -35q19 -62 -17 -159q-15 -39 -38 -78zM171 45q46 -12 114 15q41 20 88 126q53 121 49 204 q-7 70 -53 86q-40 11 -63 8q-9 -1 -16 -3q-50 -31 -105 -123q-81 -136 -72 -247q17 -55 58 -66z" glyph-name="o" horiz-adv-x="532" unicode="o"/>
<glyph d="M525 516q27 -4 49 -49q6 -13 9 -25q18 -68 -28 -169q-7 -14 -13 -25q-63 -112 -205 -201q-88 -48 -133 -52h-12q-50 0 -94 73q-1 3 -2 4l-180 -317q11 -14 102 -19q9 -1 15 -1q7 0 7 -4q-1 -4 -11 -5q-10 0 -60 2q-65 3 -82 3q-18 0 -118 -5q-63 -3 -71 -3q-7 0 -6 4 q2 3 6 4q79 8 110 26q43 25 101 118q30 48 129 221q112 197 133 248q17 43 15 69t-29 38q-4 2 -7 3q-43 -11 -103 -69q-7 -8 -13 -14l-7 7q91 88 161 128q38 21 64 -42q10 -27 12 -50q4 -53 -89 -200q-4 -6 -12 -19q-5 -9 -8 -13q182 210 297 296q49 36 73 38zM261 36 q37 1 73 19q60 49 88 91q22 32 40 72q52 114 42 193q-1 6 -2 11q-7 32 -28 43q-2 1 -3 1q-29 -3 -146 -116q-125 -120 -191 -215q48 -78 91 -93q17 -6 36 -6z" glyph-name="p" horiz-adv-x="606" unicode="p"/>
<glyph d="M130 -243q-24 2 -25 16q0 21 22 57q153 252 251 407q22 35 44 65q-179 -177 -313 -281q-13 -10 -24 -18q-12 -9 -36 -2q-3 1 -4 2q-48 36 -33 144q8 49 27 97q49 122 179 204q103 64 186 64q49 0 83 -26q21 -17 50 -49q8 7 40 39q25 26 36 36q9 9 9 -2q-32 -46 -156 -251 q-183 -303 -242 -408l-16 -28q2 -29 46 -36q30 -5 87 -5q8 0 9 -4q1 -3 -4 -4q-3 -1 -6 -1q-27 0 -58 -1.5t-57 -4t-47.5 -5t-34.5 -4.5zM108 53q17 -9 156 113q138 122 219 218q-68 86 -109 100q-14 4 -28 4q-66 0 -139 -77q-62 -66 -93 -154q-46 -129 -15 -191q4 -8 9 -13 z" glyph-name="q" horiz-adv-x="572" unicode="q"/>
<glyph d="M59 4q-39 -2 -41 -2q-32 4 -20 41q1 1 1 2q100 137 154 258q33 73 31 110q-3 33 -32 42q-44 -11 -100 -64q-10 -9 -17 -17l-7 7q83 80 162 125q39 21 62 -44q9 -26 11 -48q2 -34 -27 -98q104 136 164 173q26 16 49 20q62 5 97 -3q6 -2 7 -3q-2 -22 -38 -57 q-16 -14 -25 -17q-11 0 -36 5q-47 7 -78 7q-53 -16 -121 -116q-16 -25 -137 -225q-32 -53 -59 -96z" glyph-name="r" horiz-adv-x="480" unicode="r"/>
<glyph d="M385 401h-4q-62 121 -149 99q-42 -25 -28 -86q10 -43 50 -128q84 -186 -26 -255q-64 -39 -136 -39q-65 -2 -99 39q-5 5 -8 10q-20 33 1 74q19 34 55 44l4 -3q-2 -65 43 -105q54 -46 116 -22q44 20 26 89q-9 33 -53 141q-67 164 -2 220q13 11 30 19q63 28 114 27 q80 -1 100 -41q15 -34 -21 -71q-6 -7 -13 -12z" glyph-name="s" horiz-adv-x="397" unicode="s"/>
<glyph d="M292 158l7 -5q-81 -73 -174 -135q-14 -10 -25 -16q-13 -8 -39 -1q-4 1 -5 2q-30 23 -34 81v2q-3 53 58 158q56 95 127 209h-11h-58q-9 2 -1 8q1 1 2 1q136 75 232 149q6 5 9 1q0 -3 -1 -5q-9 -15 -31 -49t-34 -53q49 0 112 3q29 2 33 1q9 -3 -19 -32q-25 -25 -38 -27h-17 q-56 1 -104 2q-89 -141 -134 -225q-45 -82 -46 -123v-11q3 -38 29 -47q35 12 124 80q23 18 38 32z" glyph-name="t" horiz-adv-x="376" unicode="t"/>
<glyph d="M266 414q1 -25 -71 -154q-4 -6 -6 -10q-14 -25 -38 -67q-41 -70 -49 -93q-1 -30 40 -42q44 0 157 117q82 87 156 191q17 24 71 121q7 14 12 21q75 21 75 -12q-1 -9 -5 -20q-91 -130 -157 -261q-40 -81 -43 -115q-1 -21 30 -36l10 -4q50 17 111 75l10 10l6 -7 q-86 -83 -155 -125q-13 -8 -48 -1q-6 1 -8 2q-31 23 -38 76v3q-4 36 82 183q17 30 20 35q-122 -158 -238 -250q-60 -47 -93 -54q-41 6 -66 37q-10 14 -14 29q-3 22 48 107q40 65 55 93q55 100 62 132q2 13 2 23q-3 28 -33 37q-44 -11 -100 -64q-10 -9 -17 -17l-7 7 q83 80 162 125q38 21 64 -41q11 -28 13 -51z" glyph-name="u" horiz-adv-x="607" unicode="u"/>
<glyph d="M210 46h1q121 102 214 195q85 84 85 159q0 42 -27 61q-6 3 -11 5q-41 -10 -110 -67l-4 4q55 55 153 106q3 1 4 2q22 12 46 -22q19 -26 18 -55q-3 -60 -147 -199q-138 -132 -261 -233q-9 -7 -22 -7q-18 0 -37 16q-10 11 -11 22q55 275 55 336q-1 72 -34 88q-5 2 -9 2 q-32 -8 -90 -55q-6 -5 -10 -9l-5 4q69 67 143 107q46 25 69 -35q12 -31 14 -78q2 -66 -51 -320q3 -22 21 -26q3 -1 6 -1z" glyph-name="v" horiz-adv-x="572" unicode="v"/>
<glyph d="M431 35q3 36 14 126q9 77 12 106q-23 -28 -41 -45l-53 -53q-146 -150 -173 -163q-11 -5 -38 -5q-29 0 -32 15l1 19q4 33 13 111q21 183 20 203q0 86 -38 110q-4 3 -8 4q-32 -8 -93 -60q-3 -3 -6 -5l-5 5q67 64 143 106q48 25 70 -40q12 -38 13 -95q0 -46 -32 -283 q-5 -37 -8 -61q87 53 211 194q5 6 9 11q41 47 48 84q3 22 2 61q-1 63 -36 81q-4 2 -7 3q-32 -8 -94 -61q-2 -3 -4 -4l-7 4q63 61 141 104q2 1 3 2q46 24 69 -40q14 -38 15 -95q0 -16 -37 -319q-2 -15 -3 -27q80 46 172 153q25 29 38 49q66 92 72 149q1 13 0 26 q-11 46 -41 62q-4 2 -7 3q-34 -10 -95 -61q-4 -4 -7 -6l-5 6q65 65 129 96q8 4 14 6q47 17 76 -36q6 -13 11 -27q22 -78 -138 -236l-5 -5q-142 -142 -167 -164q-34 -31 -46 -37q-13 -5 -37 -5q-32 0 -34 15z" glyph-name="w" horiz-adv-x="860" unicode="w"/>
<glyph d="M262 442q7 -38 22 -163l38 37q163 158 209 204q20 11 29 -2q4 -8 -1 -18q-117 -87 -229 -189l-45 -41q18 -146 28 -180q8 -28 35 -40q4 -2 7 -3q47 18 118 87l7 -6q-92 -87 -155 -125q-13 -8 -48 -1q-6 1 -8 2q-26 21 -38 79q-8 33 -21 138q-5 -5 -11.5 -10.5t-13.5 -12 t-13 -12t-14.5 -13t-13.5 -12.5l-13 -13t-11.5 -11l-10.5 -9l-7 -7q-99 -96 -217 -214l-22 3q-20 10 -8 30q151 112 240 189l114 101q-20 168 -29 200q-9 30 -25 40q-3 1 -5 2q-35 -12 -106 -70q-10 -8 -18 -15l-6 5q60 59 148 116q8 5 15 9q16 9 34 1q32 -17 45 -76z" glyph-name="x" horiz-adv-x="513" unicode="x"/>
<glyph d="M263 365q0 -142 -27 -264q-8 -34 -17 -57l105 109q146 151 175 207q11 21 13 37q-3 45 -41 61q-37 -12 -97 -65l-6 6q44 44 115 89q31 19 49 25q17 4 35 -20q16 -24 10 -49q-32 -70 -188 -236q-18 -19 -58 -61q-19 -19 -56 -58q-129 -135 -214 -211q-180 -164 -368 -164 q-29 1 -39 17q-8 16 25 49q7 7 13 12h111q131 0 214 60q19 14 38 31q46 41 65 62q54 101 65 350q1 32 1 58q-1 73 -20 98q-11 11 -29 10q-32 -14 -85 -58q-6 -4 -10 -8l-6 6q70 63 143 105q11 6 22 6q18 -1 31 -14q31 -35 31 -133z" glyph-name="y" horiz-adv-x="575" unicode="y"/>
<glyph d="M479 428q-1 4 -3 5q-80 -41 -124 -41q-34 0 -94 40q-49 33 -69 32q-18 -6 -83 -71l-16 -16l-8 5q98 104 145 135q15 9 52 4q5 -1 8 -2q6 -3 25 -18q67 -52 118 -56q7 -1 13 -1q54 0 88 25q17 13 36 33q10 10 20 -4q6 -12 -3 -17q-65 -35 -556 -400q0 -4 2 -5 q105 62 138 62q28 0 109 -47q53 -31 69 -31q28 8 96 68q14 12 20 18l6 -6q-57 -59 -142 -128q-6 -5 -10 -8q-12 -9 -50 -2q-6 1 -8 2q-6 3 -28 15q-103 59 -148 59q-53 0 -105 -47q-13 -12 -26 -26q-16 -17 -27 -7q-10 11 8 27l420 307q86 64 127 96z" glyph-name="z" horiz-adv-x="524" unicode="z"/>
<glyph d="M284 391q-39 -83 -149 -124q-2 -1 -3 -1q26 -13 41 -56q17 -46 -1 -84q-18 -40 -89 -151q-47 -73 -70 -120q-36 -84 0 -114q29 -23 106 -23q11 0 11 -9q-2 -9 -13 -10q-101 0 -130 67q-20 48 7 107q26 56 103 170q45 67 62 103q28 58 -7 94q-20 20 -48 20q-5 2 -4 8 q3 6 9 7q81 0 131 72q10 15 17 31q16 35 41 143q21 89 47 145q44 95 183 120q41 8 86 8q9 0 10 -8q-2 -8 -11 -9q-146 0 -199 -41q-24 -20 -38 -49q-23 -50 -55 -180q-20 -77 -37 -116z" glyph-name="braceleft" horiz-adv-x="445" unicode="{"/>
<glyph d="M139 262q-82 -178 -212 -467q-19 -6 -27 0q-2 1 -3 2q97 185 230 469l218 481q15 4 28 -6l2 -1q-98 -179 -236 -478z" glyph-name="bar" horiz-adv-x="267" unicode="|"/>
<glyph d="M120 105q36 77 136 118q9 3 17 6q-26 13 -42 55q-16 47 2 86q18 40 89 149q47 73 70 120q37 85 -1 114q-31 23 -106 23q-11 0 -11 9q2 9 13 10q102 0 129 -68q18 -48 -9 -106q-26 -55 -102 -171q-43 -64 -59 -100q-28 -58 7 -94q20 -20 48 -20q5 -2 4 -8q-3 -6 -9 -7 q-81 0 -131 -72q-10 -15 -17 -31q-16 -35 -42 -144q-21 -90 -47 -146q-44 -95 -183 -120q-41 -8 -86 -8q-9 0 -10 8q2 8 11 9q145 0 197 40q25 20 39 50q22 50 56 182q20 77 37 116z" glyph-name="braceright" horiz-adv-x="445" unicode="}"/>
<glyph d="M218 229q63 81 82 94q13 8 24 8q24 0 96 -38q50 -26 69 -26q18 0 30 13q10 12 35 47q7 9 10 3q0 -4 -2 -8q-60 -87 -91 -104q-12 -6 -24 -6q-23 0 -88 38q-54 31 -75 31q-10 0 -29 -21q-5 -7 -29 -36q-9 -10 -10 -4q0 4 2 9z" glyph-name="asciitilde" unicode="~"/>
<glyph glyph-name="nbspace" horiz-adv-x="290" unicode=" "/>
<glyph d="M280 499q10 -17 -7 -57q-10 -23 -22 -30q-13 -7 -42 -7q-31 0 -38 10q-5 37 19 73q7 9 12 13q10 6 37 6q33 -1 41 -8zM-113 -351q-9 -17 -50 -8q-28 8 -27 18q28 65 124 232q15 27 46 79q115 193 192 356l9 -2q-100 -209 -196 -450q-61 -155 -98 -225z" glyph-name="exclamdown" horiz-adv-x="305" unicode="¡"/>
<glyph d="M70 -222q-18 -8 -26 5q23 44 108 214q-63 10 -94 57q-10 15 -14 30q-25 99 31 199q10 17 21 33q54 94 196 169q45 24 113 31q47 96 104 219q19 5 22 -7q-47 -84 -111 -211h13q83 0 100 -46q3 -9 3 -18q0 -34 -39 -52q-10 -5 -19 -6q-17 61 -77 84q-79 -161 -94 -192 q-49 -102 -114 -239q2 -1 12 -3q40 -11 110 8q17 5 29 10q44 20 93 69q13 13 22 24l8 -5q-58 -68 -141 -114q-63 -35 -131 -42q-9 -1 -17 -1h-5q-4 1 -5 1q-42 -92 -98 -217zM347 488q-23 0 -50 -8q-62 -43 -104 -109q-4 -6 -7 -12q-72 -124 -71 -197q1 -22 6 -42 q13 -46 59 -67l115 237q18 37 56 116q26 51 38 77q-22 5 -42 5z" glyph-name="cent" horiz-adv-x="529" unicode="¢"/>
<glyph d="M264 244q113 0 211 6q9 -7 4 -19q-2 -4 -4 -5q-95 7 -210 7q-46 0 -69 -1q-95 -195 -168 -288q239 -33 268 -36q65 -7 111 -7t87 40l4 4q45 41 94 122l27 44q6 7 11 4q1 -3 0 -5l-27 -45q-24 -41 -112 -179q-2 -3 -3 -4q-23 -34 -61 -48q-13 -5 -25 -5q-82 0 -302 78 q-60 21 -79 27q-37 -46 -67 -61q-32 -15 -55 -15q-32 0 -36 30q-1 4 -1 8q0 35 47 50q20 6 42 6q17 0 67 -7q24 43 111 280l2 6q-49 -1 -92 -5q-10 6 -3 16q2 3 3 4q24 -2 97 -2q35 92 66 165q81 192 262 288q60 32 108 32q70 0 91 -40q7 -13 7 -27q0 -43 -36 -51 q-6 -1 -12 -1q-43 5 -46 50q0 40 -34 47q-9 1 -19 1q-28 0 -56 -17q-63 -40 -124 -151q-27 -50 -59 -120q-32 -73 -82 -176h62z" glyph-name="sterling" horiz-adv-x="699" unicode="£"/>
<glyph d="M534 509l-190 -178q82 1 161 9q6 -7 -5 -23l-1 -1q-46 7 -164 7l-30 -64q-9 -18 -35 -76q98 0 169 10q8 -7 -3 -24q-50 4 -170 6q-60 -133 -55 -154q4 -12 31 -12h18q7 0 4 -5q-4 -3 -8 -4q-16 0 -65 2q-30 1 -37 1q-6 0 -39 -1q-56 -2 -73 -2q-7 0 -4 5q4 3 8 4h18 q31 0 47 16q26 26 85 150q-86 -1 -157 -7q-6 4 3 22q63 -7 158 -7l35 76l30 64q-99 -2 -163 -9q-6 7 4 22q68 -5 161 -5l-19 178q-13 126 -29 153q-15 22 -44 22h-8q-6 1 -6 4q4 4 8 5q17 0 63 -2q29 -1 35 -1t46 1q65 2 82 2q5 0 6 -4q-1 -4 -6 -5h-31q-46 0 -55 -58 q-6 -43 3 -122l19 -172l193 180q53 49 82 103q38 70 -24 70q-5 0 -20 -3q-8 -1 -10 -1q-5 1 -4 6q4 6 14 6q9 0 56 -1q45 -1 54 -1q5 0 42 1q59 1 74 1q7 0 4 -5q-2 -3 -6 -4h-7q-50 0 -189 -124q-11 -11 -34 -31q-15 -14 -22 -20z" glyph-name="yen" horiz-adv-x="615" unicode="¥"/>
<glyph d="M-104 -202q6 12 39 77q62 119 70 138l102 218q12 10 20 -3q-8 -18 -66 -133q-38 -75 -44 -88q-36 -74 -95 -215q-17 -4 -26 6zM148 318q6 14 43 88q54 112 62 130l93 209q15 11 26 -5l-107 -210q-39 -83 -96 -215q-15 -3 -21 3z" glyph-name="brokenbar" horiz-adv-x="267" unicode="¦"/>
<glyph d="M528 86q0 -77 -87 -141q-7 -5 -13 -9q-9 -63 -70 -102q-42 -27 -87 -27q-78 0 -116 39q-16 17 -16 34q0 39 34 48q7 2 13 2q33 0 51 -36q20 -39 22 -43q20 -25 54 -25q47 0 65 42q7 15 6 31q0 61 -94 164q-18 20 -56 59q-105 108 -138 163q-35 57 -35 105q0 73 80 136 q11 9 24 18q15 65 79 97q35 17 73 17q73 0 109 -38q15 -16 15 -32q-6 -39 -41 -43q-30 0 -47 33q-20 36 -27 43q-19 19 -50 19q-45 0 -63 -40q-7 -17 -6 -33q0 -62 98 -170q18 -20 57 -60q105 -109 136 -162q30 -49 30 -89zM162 514q0 16 2 23q-54 -41 -55 -101 q0 -72 102 -184q20 -22 62 -65q100 -104 130 -154q26 -44 26 -81q0 -6 -1 -9q46 36 50 81q1 8 1 17q0 65 -103 178q-18 20 -57 61q-103 109 -133 159q-24 42 -24 75z" glyph-name="section" horiz-adv-x="585" unicode="§"/>
<glyph d="M455 648q0 35 31 50q12 5 23 5q34 0 49 -31q6 -12 6 -24q0 -34 -32 -49q-11 -5 -23 -5q-34 0 -49 31q-5 11 -5 23zM237 648q0 35 31 50q12 5 23 5q34 0 49 -31q6 -12 6 -24q0 -34 -32 -49q-11 -5 -23 -5q-34 0 -49 31q-5 11 -5 23z" glyph-name="dieresis" unicode="¨"/>
<glyph d="M284 465q-37 -60 -20 -140q21 -93 102 -130q42 -18 93 -18q73 0 135 63q8 8 22 23q5 5 7 0q0 -2 -1 -3q-99 -118 -209 -119q-116 0 -171 91q-44 73 -24 156q8 30 23 53q64 93 159 110q18 3 36 3q99 0 148 -51q3 -4 5 -6q7 -9 -23 -27q-11 -7 -17 -7t-31 25 q-53 49 -107 50q-76 0 -121 -64q-3 -5 -6 -9zM399 1v-1q146 0 249 98q107 105 108 261q0 154 -105 248q-91 80 -220 81q-146 0 -249 -98q-107 -105 -108 -261q0 -153 105 -247q91 -81 220 -81zM440 704h1q160 0 254 -104q83 -92 83 -233t-102 -253q-99 -107 -236 -126 q-26 -4 -51 -4q-160 0 -254 104q-83 92 -83 233q0 142 103 253q98 106 234 126q26 4 51 4z" glyph-name="copyright" horiz-adv-x="823" unicode="©"/>
<glyph d="M256 448q-2 26 44 85q21 28 27 38l28 34q-59 -66 -214 -198q-5 -3 -8 -6q-1 -1 -2.5 -1.5t-3.5 -0.5t-4 -0.5t-4.5 -0.5t-4.5 0.5t-4.5 0.5t-4 0.5t-3.5 0.5l-1 1q-35 35 -3 129l6 16q29 73 124 122q56 28 92 28q37 0 59 -18q11 -9 22 -21q21 18 36 36q6 5 10 -1 q-56 -69 -102 -158q-29 -57 -28 -81q0 -17 17 -23q2 -1 3 -1q32 14 67 52l7 -5q-57 -54 -92 -75q-1 -1 -3 -1.5t-4.5 -0.5h-6h-7h-6.5h-6t-5.5 0.5t-4.5 0.5l-2 1q-15 19 -18 47zM148 434v1q23 5 116 90q62 58 96 99q-43 50 -85 51q-41 0 -82 -54q-24 -31 -36 -67 q-27 -86 -9 -120z" glyph-name="ordfeminine" horiz-adv-x="396" unicode="ª"/>
<glyph d="M281 244q15 -31 139 -152q34 -33 41 -42q22 -26 15 -39q-8 -12 -23 -12q-17 2 -31 23q-9 14 -40 59q-90 129 -109 163q-3 5 3 10q40 24 182 112q143 90 178 110q41 23 52 23q17 0 17 -13q0 -4 -2 -8q-11 -20 -36 -34q-14 -8 -99 -49q-233 -113 -283 -143q-5 -4 -4 -8z M55 268q17 -33 157 -205q7 -9 10 -13q16 -22 17 -27q0 -7 -2 -12q-8 -12 -23 -12q-18 2 -31 23l-136 246q-3 5 3 10q39 23 205 144q63 45 91 63q38 23 53 23q18 0 13 -16q-1 -3 -2 -5q-13 -21 -38 -34q-212 -116 -313 -177q-5 -4 -4 -8z" glyph-name="guillemotleft" horiz-adv-x="683" unicode="«"/>
<glyph d="M273 251q103 0 201 6q9 -6 -2 -20q-2 -3 -4 -4q-95 7 -200 7q-106 0 -200 -7q-9 5 2 20q2 3 4 4q99 -6 199 -6z" glyph-name="uni00AD" horiz-adv-x="538" unicode="­"/>
<glyph d="M586 44q-91 -59 -205 -60q-168 0 -259 110q-71 87 -71 220q0 139 102 253q98 107 231 131q32 6 62 6q167 0 260 -99q73 -79 73 -194q0 -130 -79 -222q-67 -78 -148 -79q-69 0 -84 64q-7 27 -7 68q0 86 -15 105q-15 17 -58 18h-26l-30 -60q-66 -125 -59 -141q2 -7 17 -7 h17q5 0 2 -5q-2 -2 -4 -3q-10 0 -52 1h-30q-5 0 -48 -1h-24q-4 0 -2 5l3 3q22 0 30 5q17 8 39 49q34 61 62 119l40 80q63 121 60 139q-2 9 -25 9h-14q-5 0 -1 5q2 2 4 3q10 0 48 -1h27h27q45 1 59 1q78 0 114 -41q29 -37 7 -87q-33 -68 -180 -72q77 -15 79 -118v-2 q1 -85 14 -105q13 -18 41 -18q48 0 99 57q76 86 76 214q0 142 -105 225q-89 69 -216 69q-142 0 -247 -97q-109 -100 -116 -249q-1 -10 -1 -20q0 -159 107 -249q87 -72 211 -72q121 1 192 47q4 3 5 1q0 -3 -2 -5zM415 469l-50 -98h49q114 1 154 87q35 76 -23 95q-17 6 -39 6 h-20q-18 0 -29 -14q-10 -15 -42 -76z" glyph-name="registered" horiz-adv-x="804" unicode="®"/>
<glyph d="M399 679h1q63 0 99 1q39 1 39 -1q-2 -9 -51 -57q-3 0 -17 1q-44 1 -69 1q-20 0 -47 -1q-22 -2 -36 -2q-39 -1 -39 3q2 8 51 56h14q31 -1 55 -1z" glyph-name="macron" unicode="¯"/>
<glyph d="M127 577q0 67 54 106q35 24 76 24q67 0 106 -54q24 -35 24 -76q0 -67 -54 -106q-35 -24 -76 -24q-67 0 -106 54q-24 35 -24 76zM142 577q0 -59 49 -95q31 -21 66 -21q59 0 94 50q21 30 21 66q0 59 -49 95q-31 21 -66 21q-59 0 -94 -50q-21 -30 -21 -66z" glyph-name="degree" horiz-adv-x="376" unicode="°"/>
<glyph d="M263 526q7 9 19 4q4 -2 5 -4q-7 -94 -7 -155q60 0 153 6q9 -7 4 -19q-2 -4 -4 -5q-94 7 -153 7q0 -64 7 -154q-5 -9 -19 -4q-3 2 -5 4q3 48 3 154q-63 0 -153 -7q-9 5 -4 19q2 3 4 5q95 -6 153 -6q0 108 -3 155zM272 126q62 0 159 6q9 -7 4 -19q-2 -4 -4 -5q-96 7 -158 7 q-65 0 -158 -7q-9 5 -4 19q2 3 4 5q99 -6 157 -6z" glyph-name="plusminus" horiz-adv-x="558" unicode="±"/>
<glyph d="M246 359q-60 0 -168 -2h-6h-4.5h-3.5h-2q-3 2 -1 8q315 160 352 244q24 55 -11 78q-17 11 -40 11q-49 0 -71 -37q-14 -24 -27 -69q-12 -36 -45 -37q-25 0 -24 22q1 10 7 22q33 60 114 95q46 20 84 20q73 0 88 -45q7 -24 -4 -53q-15 -34 -128 -98q-19 -10 -59 -32 q-82 -45 -125 -71h77q107 0 145 25q21 14 44 46q4 5 7 3q1 -3 0 -6q-10 -16 -79 -112q-6 -8 -19 -11q-12 -1 -101 -1z" glyph-name="twosuperior" horiz-adv-x="373" unicode="²"/>
<glyph d="M184 346q-77 0 -79 43q0 9 2 18q12 38 95 55q5 1 5 -4q-1 -2 -3 -3q-26 -8 -32 -27q-8 -29 32 -42q18 -6 38 -6q47 0 66 9q21 15 34 40q1 2 2 3q26 50 2 87q-18 25 -51 26q-20 0 -45 -24q-17 -16 -28 -17q-18 2 -19 16q2 18 27 23q140 23 165 67q22 41 -3 70 q-16 17 -42 17q-51 0 -73 -55l-6 -16q-13 -34 -39 -35q-22 0 -23 19q0 8 4 16q21 44 105 72q44 14 77 14q52 0 73 -36q15 -29 -3 -61q-17 -27 -111 -51q-7 -2 -22 -5q-24 -6 -35 -9q40 6 52 6q55 0 70 -38q11 -30 -11 -66q-16 -27 -96 -70q-67 -36 -128 -36z" glyph-name="threesuperior" horiz-adv-x="349" unicode="³"/>
<glyph d="M309 529q-3 -2 -4 -2q-3 1 -4 4q1 2 3 5q39 37 121 149q8 12 11 15q7 6 26 6h4.5h4.5t3.5 -0.5l3 -1t2.5 -0.5l2 -1q3 -4 3 -21q-1 -8 -13 -19q-4 -4 -28 -22q-95 -71 -135 -112z" glyph-name="acute" unicode="´"/>
<glyph d="M334 -149v502h-81q-127 0 -176 79q-21 36 -21 82q0 127 128 152q30 6 65 6h111q102 -1 110 -1q6 0 40 1q55 1 71 1q5 0 6 -4q-1 -4 -6 -5h-18q-30 0 -38 -13q-15 -23 -16 -171v-66v-563q0 -7 -5 -8q-4 -1 -5 4q-1 3 -1 4v563q0 203 -9 230q-11 16 -30 17h-113v-810 q0 -8 -6 -8q-5 2 -6 8z" glyph-name="paragraph" horiz-adv-x="644" unicode="¶"/>
<glyph d="M70 214q-10 17 7 57q10 23 22 30q13 7 42 7q31 0 38 -10q5 -37 -19 -73q-7 -9 -12 -13q-10 -6 -37 -6q-33 1 -41 8z" glyph-name="periodcentered" horiz-adv-x="247" unicode="·"/>
<glyph d="M283 -276q0 32 25 44q8 3 16 3q19 0 50 -25q32 -25 57 -25q32 0 46 35q5 13 5 26q0 62 -116 74q-28 3 -61 3q-9 2 -5 11q74 96 107 145q6 7 10 2q0 -2 -1 -4q-12 -17 -65 -95q1 -3 5 -3q110 0 144 -51q9 -14 9 -28q0 -55 -43 -106q-41 -46 -91 -47q-63 0 -86 26 q-6 8 -6 15z" glyph-name="cedilla" unicode="¸"/>
<glyph d="M212 630q90 42 130 70q11 7 18 7q8 0 8 -8q-1 -1 -1 -2q-6 -11 -99 -176q-49 -88 -60 -108q-23 -41 19 -46q5 -1 10 -1t3 -4q-2 -2 -4 -3q-7 0 -49 1h-40t-42 -1h-39t-2 4q2 2 4 3q49 1 76 43l125 220q4 11 -6 12q-12 -1 -48 -18q-6 -3 -6 2q1 3 3 5z" glyph-name="onesuperior" horiz-adv-x="221" unicode="¹"/>
<glyph d="M340 515q-30 -53 -105 -93q-47 -26 -76 -27q-35 0 -59 29q-7 8 -10 16q-7 50 33 121q3 7 7 13q36 59 93 92q59 30 89 31h1q33 0 53 -33q4 -7 6 -13q14 -46 -22 -118zM188 429q24 -6 62 9q28 14 53 87q18 54 16 93q-4 37 -30 47q-24 9 -56 0q-37 -23 -66 -89 q-24 -58 -20 -109q9 -29 41 -38z" glyph-name="ordmasculine" horiz-adv-x="330" unicode="º"/>
<glyph d="M405 262q-15 31 -139 152q-34 33 -41 42q-22 26 -15 39q8 12 23 12q17 -2 31 -23q9 -14 40 -59q90 -129 109 -163q3 -5 -3 -10q-40 -24 -182 -112q-143 -90 -178 -110q-41 -23 -52 -23q-17 0 -17 13q0 4 2 8q11 20 36 34q14 8 99 49q233 113 283 143q5 4 4 8zM631 238 q-17 33 -157 205q-7 9 -10 13q-16 22 -17 27q0 7 2 12q8 12 23 12q18 -2 31 -23l136 -246q3 -5 -3 -10q-39 -23 -205 -144q-63 -45 -91 -63q-38 -23 -53 -23q-18 0 -13 16q1 3 2 5q13 21 38 34q212 116 313 177q5 4 4 8z" glyph-name="guillemotright" horiz-adv-x="683" unicode="»"/>
<glyph d="M175 -91q-12 0 -58 -1q-25 -1 -29 -1q-5 0 -2 4q2 2 4 3q51 1 83 54q4 8 17 29q14 24 22 37l-173 1q-8 0 -6 7q2 2 4 3q240 149 351 227q7 5 12 3q4 -4 2 -10q-55 -94 -107 -187h49q44 0 65 21q10 10 22 26q4 6 8 2q1 -3 -1 -6l-59 -82q-5 -5 -16 -5h-93q-24 -42 -39 -69 q-27 -50 27 -51q4 0 2 -4q-2 -2 -4 -3q-6 0 -32 1q-37 1 -49 1zM455 700q90 42 130 70q11 7 18 7q8 0 8 -8q-1 -1 -1 -2q-6 -11 -99 -176q-49 -88 -60 -108q-23 -41 19 -46q5 -1 10 -1t3 -4q-2 -2 -4 -3q-7 0 -49 1h-40t-42 -1h-39t-2 4q2 2 4 3q49 1 76 43l125 220 q4 11 -6 12q-12 -1 -48 -18q-6 -3 -6 2q1 3 3 5zM237 78l63 108q9 16 3 16q-4 0 -18 -9q-1 -1 -2 -1l-169 -110l-5 -4h128zM358 348q162 0 261 6q9 -6 -3 -20q-2 -3 -4 -4q-94 7 -259 7q-166 0 -261 -7q-9 5 3 20q2 3 4 4q97 -6 259 -6z" glyph-name="onequarter" horiz-adv-x="636" unicode="¼"/>
<glyph d="M170 -96q-60 0 -168 -2h-16q-3 2 -1 8q315 160 352 244q24 55 -11 78q-17 11 -40 11q-49 0 -71 -37q-14 -24 -27 -69q-12 -36 -45 -37q-25 0 -24 22q1 10 7 22q33 60 114 95q46 20 84 20q73 0 88 -45q7 -24 -4 -53q-15 -34 -128 -98q-19 -10 -59 -32q-82 -45 -125 -71h77 q107 0 145 25q21 14 44 46q4 5 7 3q1 -3 0 -6q-10 -16 -79 -112q-6 -8 -19 -11q-12 -1 -101 -1zM455 700q90 42 130 70q11 7 18 7q8 0 8 -8q-1 -1 -1 -2q-6 -11 -99 -176q-49 -88 -60 -108q-23 -41 19 -46q5 -1 10 -1t3 -4q-2 -2 -4 -3q-7 0 -49 1h-40t-42 -1h-39t-2 4 q2 2 4 3q49 1 76 43l125 220q4 11 -6 12q-12 -1 -48 -18q-6 -3 -6 2q1 3 3 5zM358 348q162 0 261 6q9 -6 -3 -20q-2 -3 -4 -4q-94 7 -259 7q-166 0 -261 -7q-9 5 3 20q2 3 4 4q97 -6 259 -6z" glyph-name="onehalf" horiz-adv-x="636" unicode="½"/>
<glyph d="M175 -91q-12 0 -58 -1q-25 -1 -29 -1q-5 0 -2 4q2 2 4 3q51 1 83 54q4 8 17 29q14 24 22 37l-173 1q-8 0 -6 7q2 2 4 3q240 149 351 227q7 5 12 3q4 -4 2 -10q-55 -94 -107 -187h49q44 0 65 21q10 10 22 26q4 6 8 2q1 -3 -1 -6l-59 -82q-5 -5 -16 -5h-93q-24 -42 -39 -69 q-27 -50 27 -51q4 0 2 -4q-2 -2 -4 -3q-6 0 -32 1q-37 1 -49 1zM367 419q-77 0 -79 43q0 9 2 18q12 38 95 55q5 1 5 -4q-1 -2 -3 -3q-26 -8 -32 -27q-8 -29 32 -42q18 -6 38 -6q47 0 66 9q21 15 34 40q1 2 2 3q26 50 2 87q-18 25 -51 26q-20 0 -45 -24q-17 -16 -28 -17 q-18 2 -19 16q2 18 27 23q140 23 165 67q22 41 -3 70q-16 17 -42 17q-51 0 -73 -55l-6 -16q-13 -34 -39 -35q-22 0 -23 19q0 8 4 16q21 44 105 72q44 14 77 14q52 0 73 -36q15 -29 -3 -61q-17 -27 -111 -51q-7 -2 -22 -5q-24 -6 -35 -9q40 6 52 6q55 0 70 -38 q11 -30 -11 -66q-16 -27 -96 -70q-67 -36 -128 -36zM237 78l63 108q9 16 3 16q-4 0 -18 -9q-1 -1 -2 -1l-169 -110l-5 -4h128zM358 348q162 0 261 6q9 -6 -3 -20q-2 -3 -4 -4q-94 7 -259 7q-166 0 -261 -7q-9 5 3 20q2 3 4 4q97 -6 259 -6z" glyph-name="threequarters" horiz-adv-x="636" unicode="¾"/>
<glyph d="M326 242q-3 33 -32 42q-44 -11 -100 -64q-10 -9 -17 -17l-7 7q83 80 162 125q38 21 65 -38q11 -26 13 -49q1 -46 -28 -90q-34 -53 -164 -112q-17 -8 -52 -24q-136 -60 -182 -98q-33 -28 -47 -57q-32 -72 15 -130q53 -64 166 -64q158 0 194 91l4 14q14 68 -33 104 q-27 20 -64 20q-41 0 -98 -31l-5 6q97 50 149 55q10 1 18 1q73 0 101 -53q17 -35 6 -79q-25 -78 -139 -115q-66 -21 -133 -19q-162 0 -230 78q-56 66 -19 153q26 62 156 123q25 12 78 35q132 57 174 91q19 17 30 34q19 31 19 61zM412 510q33 -1 41 -8q10 -17 -7 -57 q-10 -23 -22 -30q-13 -7 -42 -7q-31 0 -38 10q-5 37 19 73q7 9 12 13q10 6 37 6z" glyph-name="questiondown" horiz-adv-x="551" unicode="¿"/>
<glyph d="M1133 783h-15q-29 -153 -70 -391q76 -1 188 -1q73 0 121 -2q15 -1 -16 -26q-27 -22 -44 -26q-19 -3 -88 -3q-61 0 -170 5l-19 -128q-10 -70 2 -130q6 -22 40 -33q37 14 120 80q27 22 41 36l6 -7q-85 -80 -169 -138q-14 -9 -25 -16q-13 -8 -42 -1q-3 1 -5 2q-31 23 -35 67 v3q-5 67 -3 92q2 18 5 39q8 55 23 137q-54 3 -169 9q-67 4 -100 6q-140 -171 -150 -181q-138 -154 -196 -195t-129 -41q-101 0 -161 84q-48 69 -38 142q5 29 19 49q62 92 170 144q84 39 173 39q122 0 324 -3l324 389q-94 0 -171 -7q-29 -3 -188 -29q-19 -3 -26 -3 q-13 0 38 52q14 15 17 19q16 8 163 8h182q53 0 360 7h21q23 0 32 -3q0 -20 -25 -47q-9 -10 -18 -16q-18 -4 -217 13q-60 5 -80 5zM338 373q-117 0 -176 -75q-22 -29 -40 -70q-31 -67 3 -143q35 -77 113 -100q26 -8 53 -8q41 0 64 12q46 27 178 178q4 5 7 8q16 17 65 77 q55 68 88 106q-262 15 -355 15zM1062 782l-324 -387l249 -3q41 228 75 390zM1114 897q-37 39 -148 122q-12 9 -15 12q-12 11 -13 19q0 18 3 21q4 3 20 3q20 -1 26 -6q3 -4 20 -27q71 -98 112 -137q2 -3 3 -5q-1 -3 -4 -4q-3 1 -4 2z" glyph-name="Agrave" horiz-adv-x="1349" unicode="À"/>
<glyph d="M1133 783h-15q-29 -153 -70 -391q76 -1 188 -1q73 0 121 -2q15 -1 -16 -26q-27 -22 -44 -26q-19 -3 -88 -3q-61 0 -170 5l-19 -128q-10 -70 2 -130q6 -22 40 -33q37 14 120 80q27 22 41 36l6 -7q-85 -80 -169 -138q-14 -9 -25 -16q-13 -8 -42 -1q-3 1 -5 2q-31 23 -35 67 v3q-5 67 -3 92q2 18 5 39q8 55 23 137q-54 3 -169 9q-67 4 -100 6q-140 -171 -150 -181q-138 -154 -196 -195t-129 -41q-101 0 -161 84q-48 69 -38 142q5 29 19 49q62 92 170 144q84 39 173 39q122 0 324 -3l324 389q-94 0 -171 -7q-29 -3 -188 -29q-19 -3 -26 -3 q-13 0 38 52q14 15 17 19q16 8 163 8h182q53 0 360 7h21q23 0 32 -3q0 -20 -25 -47q-9 -10 -18 -16q-18 -4 -217 13q-60 5 -80 5zM338 373q-117 0 -176 -75q-22 -29 -40 -70q-31 -67 3 -143q35 -77 113 -100q26 -8 53 -8q41 0 64 12q46 27 178 178q4 5 7 8q16 17 65 77 q55 68 88 106q-262 15 -355 15zM1062 782l-324 -387l249 -3q41 228 75 390zM1120 896q-3 -2 -4 -2q-3 1 -4 4q1 2 3 5q39 37 121 149q8 12 11 15q7 6 26 6h4.5h4.5t3.5 -0.5l3 -1t3.5 -1.5h1q3 -4 3 -21q-1 -8 -13 -19q-4 -4 -28 -22q-95 -71 -135 -112z" glyph-name="Aacute" horiz-adv-x="1349" unicode="Á"/>
<glyph d="M1133 783h-15q-29 -153 -70 -391q76 -1 188 -1q73 0 121 -2q15 -1 -16 -26q-27 -22 -44 -26q-19 -3 -88 -3q-61 0 -170 5l-19 -128q-10 -70 2 -130q6 -22 40 -33q37 14 120 80q27 22 41 36l6 -7q-85 -80 -169 -138q-14 -9 -25 -16q-13 -8 -42 -1q-3 1 -5 2q-31 23 -35 67 v3q-5 67 -3 92q2 18 5 39q8 55 23 137q-54 3 -169 9q-67 4 -100 6q-140 -171 -150 -181q-138 -154 -196 -195t-129 -41q-101 0 -161 84q-48 69 -38 142q5 29 19 49q62 92 170 144q84 39 173 39q122 0 324 -3l324 389q-94 0 -171 -7q-29 -3 -188 -29q-19 -3 -26 -3 q-13 0 38 52q14 15 17 19q16 8 163 8h182q53 0 360 7h21q23 0 32 -3q0 -20 -25 -47q-9 -10 -18 -16q-18 -4 -217 13q-60 5 -80 5zM338 373q-117 0 -176 -75q-22 -29 -40 -70q-31 -67 3 -143q35 -77 113 -100q26 -8 53 -8q41 0 64 12q46 27 178 178q4 5 7 8q16 17 65 77 q55 68 88 106q-262 15 -355 15zM1062 782l-324 -387l249 -3q41 228 75 390zM1176 1042q-4 2 -6 0q-48 -57 -131 -120q-2 -1 -3 -2q-27 -17 -39 -17q-19 3 -20 16v2q0 14 21 29q1 1 2 1q12 7 46 27q88 51 123 74q6 4 11 -1q67 -83 86 -103l4 -4q21 -21 20 -33q0 -15 -15 -20 q-4 -1 -7 -1q-23 3 -37 27q-8 16 -26 58q-18 43 -29 67z" glyph-name="Acircumflex" horiz-adv-x="1349" unicode="Â"/>
<glyph d="M1133 783h-15q-29 -153 -70 -391q76 -1 188 -1q73 0 121 -2q15 -1 -16 -26q-27 -22 -44 -26q-19 -3 -88 -3q-61 0 -170 5l-19 -128q-10 -70 2 -130q6 -22 40 -33q37 14 120 80q27 22 41 36l6 -7q-85 -80 -169 -138q-14 -9 -25 -16q-13 -8 -42 -1q-3 1 -5 2q-31 23 -35 67 v3q-5 67 -3 92q2 18 5 39q8 55 23 137q-54 3 -169 9q-67 4 -100 6q-140 -171 -150 -181q-138 -154 -196 -195t-129 -41q-101 0 -161 84q-48 69 -38 142q5 29 19 49q62 92 170 144q84 39 173 39q122 0 324 -3l324 389q-94 0 -171 -7q-29 -3 -188 -29q-19 -3 -26 -3 q-13 0 38 52q14 15 17 19q16 8 163 8h182q53 0 360 7h21q23 0 32 -3q0 -20 -25 -47q-9 -10 -18 -16q-18 -4 -217 13q-60 5 -80 5zM338 373q-117 0 -176 -75q-22 -29 -40 -70q-31 -67 3 -143q35 -77 113 -100q26 -8 53 -8q41 0 64 12q46 27 178 178q4 5 7 8q16 17 65 77 q55 68 88 106q-262 15 -355 15zM1062 782l-324 -387l249 -3q41 228 75 390zM980 916q63 81 82 94q13 8 24 8q24 0 96 -38q50 -26 69 -26q18 0 30 13q10 12 35 47q7 9 10 3q0 -4 -2 -8q-60 -87 -91 -104q-12 -6 -24 -6q-23 0 -88 38q-54 31 -75 31q-10 0 -29 -21 q-5 -7 -29 -36q-9 -10 -10 -4q0 4 2 9z" glyph-name="Atilde" horiz-adv-x="1349" unicode="Ã"/>
<glyph d="M1133 783h-15q-29 -153 -70 -391q76 -1 188 -1q73 0 121 -2q15 -1 -16 -26q-27 -22 -44 -26q-19 -3 -88 -3q-61 0 -170 5l-19 -128q-10 -70 2 -130q6 -22 40 -33q37 14 120 80q27 22 41 36l6 -7q-85 -80 -169 -138q-14 -9 -25 -16q-13 -8 -42 -1q-3 1 -5 2q-31 23 -35 67 v3q-5 67 -3 92q2 18 5 39q8 55 23 137q-54 3 -169 9q-67 4 -100 6q-140 -171 -150 -181q-138 -154 -196 -195t-129 -41q-101 0 -161 84q-48 69 -38 142q5 29 19 49q62 92 170 144q84 39 173 39q122 0 324 -3l324 389q-94 0 -171 -7q-29 -3 -188 -29q-19 -3 -26 -3 q-13 0 38 52q14 15 17 19q16 8 163 8h182q53 0 360 7h21q23 0 32 -3q0 -20 -25 -47q-9 -10 -18 -16q-18 -4 -217 13q-60 5 -80 5zM338 373q-117 0 -176 -75q-22 -29 -40 -70q-31 -67 3 -143q35 -77 113 -100q26 -8 53 -8q41 0 64 12q46 27 178 178q4 5 7 8q16 17 65 77 q55 68 88 106q-262 15 -355 15zM1062 782l-324 -387l249 -3q41 228 75 390zM1202 958q0 35 31 50q12 5 23 5q34 0 49 -31q6 -12 6 -24q0 -34 -32 -49q-11 -5 -23 -5q-34 0 -49 31q-5 11 -5 23zM984 958q0 35 31 50q12 5 23 5q34 0 49 -31q6 -12 6 -24q0 -34 -32 -49 q-11 -5 -23 -5q-34 0 -49 31q-5 11 -5 23z" glyph-name="Adieresis" horiz-adv-x="1349" unicode="Ä"/>
<glyph d="M1024 892q0 48 41 71q19 10 40 10q48 0 71 -41q10 -19 10 -40q-1 -43 -36 -68q86 1 211 5q64 2 80 2q23 0 32 -3q0 -20 -25 -47q-9 -10 -18 -16q-18 -4 -217 13q-60 5 -80 5h-15q-29 -153 -70 -391q76 -1 188 -1q73 0 121 -2q15 -1 -16 -26q-27 -22 -44 -26 q-19 -3 -88 -3q-61 0 -170 5l-19 -128q-10 -70 2 -130q6 -22 40 -33q37 14 120 80q27 22 41 36l6 -7q-85 -80 -169 -138q-14 -9 -25 -16q-13 -8 -42 -1q-3 1 -5 2q-31 23 -35 67v3q-5 67 -3 92q2 18 5 39q8 55 23 137q-54 3 -169 9q-67 4 -100 6q-140 -171 -150 -181 q-138 -154 -196 -195t-129 -41q-101 0 -161 84q-48 69 -38 142q5 29 19 49q62 92 170 144q84 39 173 39q122 0 324 -3l324 389q-94 0 -171 -7q-29 -3 -188 -29q-19 -3 -26 -3q-13 0 38 52q14 15 17 19q16 8 163 8h182q-35 24 -36 68zM338 373q-117 0 -176 -75 q-22 -29 -40 -70q-31 -67 3 -143q35 -77 113 -100q26 -8 53 -8q41 0 64 12q46 27 178 178q4 5 7 8q16 17 65 77q55 68 88 106q-262 15 -355 15zM1062 782l-324 -387l249 -3q41 228 75 390zM1037 892q0 -40 36 -60q16 -8 32 -8q40 0 60 36q8 16 8 32q0 40 -36 60q-16 8 -32 8 q-40 0 -60 -36q-8 -16 -8 -32z" glyph-name="Aring" horiz-adv-x="1349" unicode="Å"/>
<glyph d="M1246 782q-5 0 -14 1h-10q-146 0 -207 -6q-29 -3 -188 -29q-19 -3 -26 -3q-13 0 38 52q14 15 17 19q16 8 163 8h170q129 0 458 5q110 2 126 2q23 0 32 -3q0 -20 -25 -47q-9 -10 -18 -16q-21 -5 -441 14q-34 -139 -89 -338h170q73 0 121 -2q15 -1 -16 -26q-27 -22 -44 -26 q-19 -3 -88 -3q-63 0 -160 3q-57 -156 -171 -265q-55 -52 -102 -72q238 -4 340 7q55 6 148 18q66 9 76 9q12 0 -39 -53q-14 -15 -17 -19q-15 -7 -173 -7h-82q-68 0 -423 -8q-46 0 -60 15q-5 28 35 62q8 6 14 10q67 -16 128 -16q108 0 171 95q46 70 94 227q-135 5 -265 12 q-139 -145 -210 -210l-2 -2q-155 -158 -248 -207q-81 -43 -176 -43q-123 0 -184 101q-46 76 -33 158q4 23 12 41q37 78 130 139q106 69 219 69q84 0 507 -4q52 54 250 246q59 57 92 92zM338 423q-159 -1 -216 -170q-24 -72 12 -155q38 -88 116 -113q25 -8 51 -8q84 0 146 35 q77 43 211 178q11 11 62 61q105 103 153 151q-453 21 -535 21zM1169 442l2 6l95 333h-2l-342 -337q172 -2 247 -2z" glyph-name="AE" horiz-adv-x="1572" unicode="Æ"/>
<glyph d="M702 111q-83 -101 -192 -160q-79 -42 -144 -42q-82 0 -145 33l-36 -54q1 -3 5 -3q110 0 144 -51q9 -14 9 -28q0 -55 -43 -106q-41 -46 -91 -47q-63 0 -86 26q-6 8 -6 15q0 32 25 44q8 3 16 3q19 0 50 -25q32 -25 57 -25q32 0 46 35q5 13 5 26q0 62 -116 74q-28 3 -61 3 q-9 2 -5 11q7 9 79 106q-109 60 -138 196q-30 147 50 302q16 31 35 59q87 127 225 217q164 108 330 108q134 0 243 -80q11 -9 -23 -31q-23 -14 -35 -15q-15 0 -74 32q-114 59 -208 60q-164 0 -309 -157q-43 -46 -78 -101q-94 -149 -82 -306q10 -144 107 -217q69 -50 165 -50 q99 0 208 89q39 32 66 66q3 4 8 0q1 -4 -1 -7z" glyph-name="Ccedilla" horiz-adv-x="760" unicode="Ç"/>
<glyph d="M342 445q68 0 247 2q98 238 232 313q-138 34 -217 34q-182 0 -293 -134q-59 -72 -107 -188q-14 -55 -73 -56q-53 0 -26 50q3 6 6 11q138 215 344 301q119 50 248 50q111 0 331 -53q166 -41 173 -56q5 -13 -21 -39q-10 -9 -16 -11q-18 0 -199 50q-17 4 -56 15 q-56 16 -85 23q-45 -33 -149 -270q-7 -16 -17 -38q44 0 124 2q82 1 108 1q85 0 115 -7q14 -2 -11 -32q-22 -25 -38 -29q-31 -5 -93 -1q-25 2 -222 25q-118 -272 -241 -353q-4 -3 -8 -5q211 -4 308 7q52 5 146 17q76 10 87 10q12 0 -39 -53q-14 -15 -17 -19q-15 -7 -182 -7 h-182q-72 0 -413 -8q-46 0 -60 15q-5 28 35 62q8 6 14 10q12 3 103 -16q151 -32 200 -3q3 2 4 3q51 35 104 164q12 30 37 98q21 57 33 87q-144 16 -238 20q-11 1 -11 3q2 4 15 5zM1007 886q-37 39 -148 122q-12 9 -15 12q-12 11 -13 19q0 18 3 21q4 3 20 3q20 -1 26 -6 q3 -4 20 -27q71 -98 112 -137q2 -3 3 -5q-1 -3 -4 -4q-3 1 -4 2z" glyph-name="Egrave" horiz-adv-x="1066" unicode="È"/>
<glyph d="M342 445q68 0 247 2q98 238 232 313q-138 34 -217 34q-182 0 -293 -134q-59 -72 -107 -188q-14 -55 -73 -56q-53 0 -26 50q3 6 6 11q138 215 344 301q119 50 248 50q111 0 331 -53q166 -41 173 -56q5 -13 -21 -39q-10 -9 -16 -11q-18 0 -199 50q-17 4 -56 15 q-56 16 -85 23q-45 -33 -149 -270q-7 -16 -17 -38q44 0 124 2q82 1 108 1q85 0 115 -7q14 -2 -11 -32q-22 -25 -38 -29q-31 -5 -93 -1q-25 2 -222 25q-118 -272 -241 -353q-4 -3 -8 -5q211 -4 308 7q52 5 146 17q76 10 87 10q12 0 -39 -53q-14 -15 -17 -19q-15 -7 -182 -7 h-182q-72 0 -413 -8q-46 0 -60 15q-5 28 35 62q8 6 14 10q12 3 103 -16q151 -32 200 -3q3 2 4 3q51 35 104 164q12 30 37 98q21 57 33 87q-144 16 -238 20q-11 1 -11 3q2 4 15 5zM950 888q-3 -2 -4 -2q-3 1 -4 4q1 2 3 5q39 37 121 149q8 12 11 15q7 6 26 6h4.5h4.5 t3.5 -0.5l3 -1t3.5 -1.5h1q3 -4 3 -21q-1 -8 -13 -19q-4 -4 -28 -22q-95 -71 -135 -112z" glyph-name="Eacute" horiz-adv-x="1066" unicode="É"/>
<glyph d="M342 445q68 0 247 2q98 238 232 313q-138 34 -217 34q-182 0 -293 -134q-59 -72 -107 -188q-14 -55 -73 -56q-53 0 -26 50q3 6 6 11q138 215 344 301q119 50 248 50q111 0 331 -53q166 -41 173 -56q5 -13 -21 -39q-10 -9 -16 -11q-18 0 -199 50q-17 4 -56 15 q-56 16 -85 23q-45 -33 -149 -270q-7 -16 -17 -38q44 0 124 2q82 1 108 1q85 0 115 -7q14 -2 -11 -32q-22 -25 -38 -29q-31 -5 -93 -1q-25 2 -222 25q-118 -272 -241 -353q-4 -3 -8 -5q211 -4 308 7q52 5 146 17q76 10 87 10q12 0 -39 -53q-14 -15 -17 -19q-15 -7 -182 -7 h-182q-72 0 -413 -8q-46 0 -60 15q-5 28 35 62q8 6 14 10q12 3 103 -16q151 -32 200 -3q3 2 4 3q51 35 104 164q12 30 37 98q21 57 33 87q-144 16 -238 20q-11 1 -11 3q2 4 15 5zM995 1022q-4 2 -6 0q-48 -57 -131 -120q-2 -1 -3 -2q-27 -17 -39 -17q-19 3 -20 16v2 q0 14 21 29q1 1 2 1q12 7 46 27q88 51 123 74q6 4 11 -1q67 -83 86 -103l4 -4q21 -21 20 -33q0 -15 -15 -20q-4 -1 -7 -1q-23 3 -37 27q-8 16 -26 58q-18 43 -29 67z" glyph-name="Ecircumflex" horiz-adv-x="1066" unicode="Ê"/>
<glyph d="M342 445q68 0 247 2q98 238 232 313q-138 34 -217 34q-182 0 -293 -134q-59 -72 -107 -188q-14 -55 -73 -56q-53 0 -26 50q3 6 6 11q138 215 344 301q119 50 248 50q111 0 331 -53q166 -41 173 -56q5 -13 -21 -39q-10 -9 -16 -11q-18 0 -199 50q-17 4 -56 15 q-56 16 -85 23q-45 -33 -149 -270q-7 -16 -17 -38q44 0 124 2q82 1 108 1q85 0 115 -7q14 -2 -11 -32q-22 -25 -38 -29q-31 -5 -93 -1q-25 2 -222 25q-118 -272 -241 -353q-4 -3 -8 -5q211 -4 308 7q52 5 146 17q76 10 87 10q12 0 -39 -53q-14 -15 -17 -19q-15 -7 -182 -7 h-182q-72 0 -413 -8q-46 0 -60 15q-5 28 35 62q8 6 14 10q12 3 103 -16q151 -32 200 -3q3 2 4 3q51 35 104 164q12 30 37 98q21 57 33 87q-144 16 -238 20q-11 1 -11 3q2 4 15 5zM1065 949q5 31 36 42q14 4 27 2q32 -5 42 -36q4 -14 2 -27q-5 -32 -37 -42q-14 -4 -26 -2 q-33 6 -43 38q-3 13 -1 25zM851 987q6 33 38 43q12 4 24 2q33 -6 43 -38q4 -13 2 -26q-5 -32 -37 -42q-14 -3 -27 -1q-32 6 -42 36q-3 13 -1 26z" glyph-name="Edieresis" horiz-adv-x="1066" unicode="Ë"/>
<glyph d="M464 421q101 218 179 300q44 45 92 67q-67 7 -294 -32q-42 -7 -50 -7q-15 0 13 31q24 26 43 34q12 6 164 6q38 0 355 9q48 0 59 -14q4 -18 -38 -47q-4 -3 -7 -5q-11 -3 -94 11q-131 21 -178 -11q-44 -30 -79 -124q-7 -19 -22 -62q-36 -103 -63 -164q-108 -238 -236 -341 q-24 -20 -47 -32q22 -8 208 19q123 18 154 17q16 -1 5 -24q-14 -33 -50 -45q-14 -5 -27 -5l-139 3q-79 0 -390 -8q-45 0 -59 15q-1 15 28 37q12 8 21 11q10 3 84 -10q54 -9 90 -9q71 1 105 27q45 36 89 143q8 20 25 65q36 92 59 145zM837 896q-37 39 -148 122q-12 9 -15 12 q-12 11 -13 19q0 18 3 21q4 3 20 3q20 -1 26 -6q3 -4 20 -27q71 -98 112 -137q2 -3 3 -5q-1 -3 -4 -4q-3 1 -4 2z" glyph-name="Igrave" horiz-adv-x="732" unicode="Ì"/>
<glyph d="M464 421q101 218 179 300q44 45 92 67q-67 7 -294 -32q-42 -7 -50 -7q-15 0 13 31q24 26 43 34q12 6 164 6q38 0 355 9q48 0 59 -14q4 -18 -38 -47q-4 -3 -7 -5q-11 -3 -94 11q-131 21 -178 -11q-44 -30 -79 -124q-7 -19 -22 -62q-36 -103 -63 -164q-108 -238 -236 -341 q-24 -20 -47 -32q22 -8 208 19q123 18 154 17q16 -1 5 -24q-14 -33 -50 -45q-14 -5 -27 -5l-139 3q-79 0 -390 -8q-45 0 -59 15q-1 15 28 37q12 8 21 11q10 3 84 -10q54 -9 90 -9q71 1 105 27q45 36 89 143q8 20 25 65q36 92 59 145zM812 895q-3 -2 -4 -2q-3 1 -4 4q1 2 3 5 q39 37 121 149q8 12 11 15q7 6 26 6h4.5h4.5t3.5 -0.5l3 -1t3.5 -0.5l1 -1q3 -4 3 -21q-1 -8 -13 -19q-4 -4 -28 -22q-95 -71 -135 -112z" glyph-name="Iacute" horiz-adv-x="732" unicode="Í"/>
<glyph d="M464 421q101 218 179 300q44 45 92 67q-67 7 -294 -32q-42 -7 -50 -7q-15 0 13 31q24 26 43 34q12 6 164 6q38 0 355 9q48 0 59 -14q4 -18 -38 -47q-4 -3 -7 -5q-11 -3 -94 11q-131 21 -178 -11q-44 -30 -79 -124q-7 -19 -22 -62q-36 -103 -63 -164q-108 -238 -236 -341 q-24 -20 -47 -32q22 -8 208 19q123 18 154 17q16 -1 5 -24q-14 -33 -50 -45q-14 -5 -27 -5l-139 3q-79 0 -390 -8q-45 0 -59 15q-1 15 28 37q12 8 21 11q10 3 84 -10q54 -9 90 -9q71 1 105 27q45 36 89 143q8 20 25 65q36 92 59 145zM823 1042q-4 2 -6 0q-48 -57 -131 -120 q-2 -1 -3 -2q-27 -17 -39 -17q-19 3 -20 16v2q0 14 21 29q1 1 2 1q12 7 46 27q88 51 123 74q6 4 11 -1q67 -83 86 -103l4 -4q21 -21 20 -33q0 -15 -15 -20q-4 -1 -7 -1q-23 3 -37 27q-8 16 -26 58q-18 43 -29 67z" glyph-name="Icircumflex" horiz-adv-x="732" unicode="Î"/>
<glyph d="M464 421q101 218 179 300q44 45 92 67q-67 7 -294 -32q-42 -7 -50 -7q-15 0 13 31q24 26 43 34q12 6 164 6q38 0 355 9q48 0 59 -14q4 -18 -38 -47q-4 -3 -7 -5q-11 -3 -94 11q-131 21 -178 -11q-44 -30 -79 -124q-7 -19 -22 -62q-36 -103 -63 -164q-108 -238 -236 -341 q-24 -20 -47 -32q22 -8 208 19q123 18 154 17q16 -1 5 -24q-14 -33 -50 -45q-14 -5 -27 -5l-139 3q-79 0 -390 -8q-45 0 -59 15q-1 15 28 37q12 8 21 11q10 3 84 -10q54 -9 90 -9q71 1 105 27q45 36 89 143q8 20 25 65q36 92 59 145zM854 962q0 35 31 50q12 5 23 5 q34 0 49 -31q6 -12 6 -24q0 -34 -32 -49q-11 -5 -23 -5q-34 0 -49 31q-5 11 -5 23zM636 962q0 35 31 50q12 5 23 5q34 0 49 -31q6 -12 6 -24q0 -34 -32 -49q-11 -5 -23 -5q-34 0 -49 31q-5 11 -5 23z" glyph-name="Idieresis" horiz-adv-x="732" unicode="Ï"/>
<glyph d="M636 -2l-195 2q-72 1 -342 -3q-46 0 -60 15q-3 27 28 63q11 12 21 18q13 4 100 -19q137 -36 187 -13q6 3 11 6q48 34 91 137q9 22 42 110q-15 -1 -43 -1q-35 -1 -35 2q2 8 46 51h16q22 -1 35 -1l19 48q108 270 227 347q10 6 19 11l7 -2q-36 -18 -122 -221q-7 -19 -23 -56 q-25 -61 -37 -88q-2 -5 -7 -15q-7 -16 -10 -24q73 0 110 1q35 1 35 -1q-2 -8 -46 -51h-35q-56 1 -83 1h-4q-103 -210 -215 -270q83 -7 260 0q42 2 73 4q152 11 226 72q54 45 95 132q68 143 28 283q-40 142 -173 209q-94 47 -218 47q-206 0 -313 -95q-70 -62 -117 -175 q-14 -55 -74 -56q-50 0 -27 47l8 14q75 116 228 205q180 103 345 99q220 0 339 -136q92 -107 89 -251q-3 -86 -41 -159q-52 -95 -174 -180q-156 -105 -291 -107z" glyph-name="Eth" horiz-adv-x="1138" unicode="Ð"/>
<glyph d="M673 57q-39 -64 -41 -66q-9 -9 -17 -1q-2 2 -2 3l-47 382q-25 210 -42 300l-254 -379q-129 -192 -162 -235q-104 -137 -208 -183q-76 -34 -169 -34q-82 0 -181 32q-22 8 -26 12q-7 10 28 43q23 21 38 26q6 2 74 -21q109 -36 189 -36q90 0 180 94q66 69 211 283 q7 11 15 23l263 390q-25 119 -65 145q-16 9 -34 9q-19 0 -41 -8q-37 -12 -175 -116q-31 -24 -47 -37l-6 7q148 121 244 180q13 8 23 13q27 16 75 14q18 -1 29 -6q46 -20 74 -163q21 -104 47 -332l35 -302q191 313 291 455q139 203 247 261q66 35 147 35q96 0 211 -24 q10 -2 14 -3q3 -2 4 -4q0 -12 -35 -42q-23 -19 -34 -20q-9 0 -16 1q-13 2 -55 10q-132 26 -197 26q-70 0 -147 -80q-53 -56 -133 -172q-112 -159 -305 -480zM747 906q63 81 82 94q13 8 24 8q24 0 96 -38q50 -26 69 -26q18 0 30 13q10 12 35 47q7 9 10 3q0 -4 -2 -8 q-60 -87 -91 -104q-12 -6 -24 -6q-23 0 -88 38q-54 31 -75 31q-10 0 -29 -21q-5 -7 -29 -36q-9 -10 -10 -4q0 4 2 9z" glyph-name="Ntilde" horiz-adv-x="947" unicode="Ñ"/>
<glyph d="M466 36q198 -3 324 173q13 19 25 38q87 137 81 283q-6 147 -108 217q-70 48 -173 48q-218 -1 -348 -215q-89 -141 -82 -285q8 -146 113 -214q69 -43 168 -45zM408 -2q-183 0 -261 127q-65 106 -33 252q20 91 73 167q77 115 217 201q142 86 258 86q187 0 267 -128 q66 -106 34 -253q-20 -89 -73 -165q-79 -119 -220 -203q-140 -84 -262 -84zM778 896q-37 39 -148 122q-12 9 -15 12q-12 11 -13 19q0 18 3 21q4 3 20 3q20 -1 26 -6q3 -4 20 -27q71 -98 112 -137q2 -3 3 -5q-1 -3 -4 -4q-3 1 -4 2z" glyph-name="Ograve" horiz-adv-x="972" unicode="Ò"/>
<glyph d="M466 36q198 -3 324 173q13 19 25 38q87 137 81 283q-6 147 -108 217q-70 48 -173 48q-218 -1 -348 -215q-89 -141 -82 -285q8 -146 113 -214q69 -43 168 -45zM408 -2q-183 0 -261 127q-65 106 -33 252q20 91 73 167q77 115 217 201q142 86 258 86q187 0 267 -128 q66 -106 34 -253q-20 -89 -73 -165q-79 -119 -220 -203q-140 -84 -262 -84zM753 886q-3 -2 -4 -2q-3 1 -4 4q1 2 3 5q39 37 121 149q8 12 11 15q7 6 26 6h4.5h4.5t3.5 -0.5l3 -1t2.5 -1.5h2q3 -4 3 -21q-1 -8 -13 -19q-4 -4 -28 -22q-95 -71 -135 -112z" glyph-name="Oacute" horiz-adv-x="972" unicode="Ó"/>
<glyph d="M466 36q198 -3 324 173q13 19 25 38q87 137 81 283q-6 147 -108 217q-70 48 -173 48q-218 -1 -348 -215q-89 -141 -82 -285q8 -146 113 -214q69 -43 168 -45zM408 -2q-183 0 -261 127q-65 106 -33 252q20 91 73 167q77 115 217 201q142 86 258 86q187 0 267 -128 q66 -106 34 -253q-20 -89 -73 -165q-79 -119 -220 -203q-140 -84 -262 -84zM785 1042q-4 2 -6 0q-48 -57 -131 -120q-2 -1 -3 -2q-27 -17 -39 -17q-19 3 -20 16v2q0 14 21 29q1 1 2 1q12 7 46 27q88 51 123 74q6 4 11 -1q67 -83 86 -103l4 -4q21 -21 20 -33q0 -15 -15 -20 q-4 -1 -7 -1q-23 3 -37 27q-8 16 -26 58q-18 43 -29 67z" glyph-name="Ocircumflex" horiz-adv-x="972" unicode="Ô"/>
<glyph d="M466 36q198 -3 324 173q13 19 25 38q87 137 81 283q-6 147 -108 217q-70 48 -173 48q-218 -1 -348 -215q-89 -141 -82 -285q8 -146 113 -214q69 -43 168 -45zM408 -2q-183 0 -261 127q-65 106 -33 252q20 91 73 167q77 115 217 201q142 86 258 86q187 0 267 -128 q66 -106 34 -253q-20 -89 -73 -165q-79 -119 -220 -203q-140 -84 -262 -84zM600 926q63 81 82 94q13 8 24 8q24 0 96 -38q50 -26 69 -26q18 0 30 13q10 12 35 47q7 9 10 3q0 -4 -2 -8q-60 -87 -91 -104q-12 -6 -24 -6q-23 0 -88 38q-54 31 -75 31q-10 0 -29 -21 q-5 -7 -29 -36q-9 -10 -10 -4q0 4 2 9z" glyph-name="Otilde" horiz-adv-x="972" unicode="Õ"/>
<glyph d="M466 36q198 -3 324 173q13 19 25 38q87 137 81 283q-6 147 -108 217q-70 48 -173 48q-218 -1 -348 -215q-89 -141 -82 -285q8 -146 113 -214q69 -43 168 -45zM408 -2q-183 0 -261 127q-65 106 -33 252q20 91 73 167q77 115 217 201q142 86 258 86q187 0 267 -128 q66 -106 34 -253q-20 -89 -73 -165q-79 -119 -220 -203q-140 -84 -262 -84zM816 959q0 35 31 50q12 5 23 5q34 0 49 -31q6 -12 6 -24q0 -34 -32 -49q-11 -5 -23 -5q-34 0 -49 31q-5 11 -5 23zM598 959q0 35 31 50q12 5 23 5q34 0 49 -31q6 -12 6 -24q0 -34 -32 -49 q-11 -5 -23 -5q-34 0 -49 31q-5 11 -5 23z" glyph-name="Odieresis" horiz-adv-x="972" unicode="Ö"/>
<glyph d="M156 93q-11 2 -23 19q63 50 152 139q-48 48 -144 131q0 9 16 21q30 -39 124 -132l12 -12l1 1q29 29 137 147q12 -1 20 -15q-34 -24 -122 -114l-26 -26l-1 -1q78 -78 146 -132q-1 -10 -18 -20q-23 31 -107 115l-29 29q-100 -100 -138 -150z" glyph-name="multiply" horiz-adv-x="603" unicode="×"/>
<glyph d="M408 -2q-98 0 -167 38l-43 -59q-19 -1 -23 3l-5 5l51 62q-105 70 -116 213q-10 139 70 266l12 18q77 115 217 201q142 86 258 86q81 0 146 -27l60 81q17 -2 23 -9l3 -3q-32 -36 -66 -78q117 -59 140 -197q22 -133 -49 -265q-13 -26 -29 -48q-79 -119 -220 -203 q-140 -84 -262 -84zM466 36q198 -3 324 173q13 19 25 38q87 138 81 283q-7 147 -108 217q-94 -116 -253 -325q-181 -234 -253 -330q73 -54 184 -56zM523 428l249 329q-67 38 -157 38q-218 -1 -348 -215q-89 -141 -82 -285q7 -122 82 -191q56 70 167 211q61 77 89 113z" glyph-name="Oslash" horiz-adv-x="972" unicode="Ø"/>
<glyph d="M836 424q-134 -217 -158 -267q-29 -60 -28 -95q3 -25 25 -47q7 -6 13 -8q35 10 175 126q15 12 25 21l5 -7q-178 -155 -234 -185q-12 -8 -38 0q-4 1 -5 2q-42 36 -48 84q-3 58 53 157q-100 -112 -217 -190q-95 -63 -151 -63q-86 0 -141 79q-39 57 -43 130q-5 93 86 229 q27 40 90 124q105 140 123 170q32 53 31 84q-3 26 -27 55q-35 -10 -163 -105q-34 -25 -50 -39l-6 8q73 64 185 140q38 26 60 38q15 8 40 -1q3 -1 4 -2q25 -23 35 -85q6 -48 -80 -169q-9 -14 -95 -129q-117 -159 -144 -236q-14 -42 -12 -76q7 -88 61 -139q41 -39 98 -39 q66 0 219 133q70 61 114 112q16 27 56 90q50 79 79 127q29 47 73 117q74 119 84 148q7 23 6 50q-3 27 -28 55q-34 -10 -157 -99q-38 -28 -55 -43l-6 8q73 63 185 140q37 26 59 38q15 8 40 -1q3 -1 4 -2q22 -18 35 -80q1 -3 1 -5q2 -45 -36 -116q-24 -45 -142 -237zM707 886 q-37 39 -148 122q-12 9 -15 12q-12 11 -13 19q0 18 3 21q4 3 20 3q20 -1 26 -6q3 -4 20 -27q71 -98 112 -137q2 -3 3 -5q-1 -3 -4 -4q-3 1 -4 2z" glyph-name="Ugrave" horiz-adv-x="928" unicode="Ù"/>
<glyph d="M836 424q-134 -217 -158 -267q-29 -60 -28 -95q3 -25 25 -47q7 -6 13 -8q35 10 175 126q15 12 25 21l5 -7q-178 -155 -234 -185q-12 -8 -38 0q-4 1 -5 2q-42 36 -48 84q-3 58 53 157q-100 -112 -217 -190q-95 -63 -151 -63q-86 0 -141 79q-39 57 -43 130q-5 93 86 229 q27 40 90 124q105 140 123 170q32 53 31 84q-3 26 -27 55q-35 -10 -163 -105q-34 -25 -50 -39l-6 8q73 64 185 140q38 26 60 38q15 8 40 -1q3 -1 4 -2q25 -23 35 -85q6 -48 -80 -169q-9 -14 -95 -129q-117 -159 -144 -236q-14 -42 -12 -76q7 -88 61 -139q41 -39 98 -39 q66 0 219 133q70 61 114 112q16 27 56 90q50 79 79 127q29 47 73 117q74 119 84 148q7 23 6 50q-3 27 -28 55q-34 -10 -157 -99q-38 -28 -55 -43l-6 8q73 63 185 140q37 26 59 38q15 8 40 -1q3 -1 4 -2q22 -18 35 -80q1 -3 1 -5q2 -45 -36 -116q-24 -45 -142 -237zM649 886 q-3 -2 -4 -2q-3 1 -4 4q1 2 3 5q39 37 121 149q8 12 11 15q7 6 26 6h4.5h4.5t3.5 -0.5l3 -1t2.5 -1.5h2q3 -4 3 -21q-1 -8 -13 -19q-4 -4 -28 -22q-95 -71 -135 -112z" glyph-name="Uacute" horiz-adv-x="928" unicode="Ú"/>
<glyph d="M836 424q-134 -217 -158 -267q-29 -60 -28 -95q3 -25 25 -47q7 -6 13 -8q35 10 175 126q15 12 25 21l5 -7q-178 -155 -234 -185q-12 -8 -38 0q-4 1 -5 2q-42 36 -48 84q-3 58 53 157q-100 -112 -217 -190q-95 -63 -151 -63q-86 0 -141 79q-39 57 -43 130q-5 93 86 229 q27 40 90 124q105 140 123 170q32 53 31 84q-3 26 -27 55q-35 -10 -163 -105q-34 -25 -50 -39l-6 8q73 64 185 140q38 26 60 38q15 8 40 -1q3 -1 4 -2q25 -23 35 -85q6 -48 -80 -169q-9 -14 -95 -129q-117 -159 -144 -236q-14 -42 -12 -76q7 -88 61 -139q41 -39 98 -39 q66 0 219 133q70 61 114 112q16 27 56 90q50 79 79 127q29 47 73 117q74 119 84 148q7 23 6 50q-3 27 -28 55q-34 -10 -157 -99q-38 -28 -55 -43l-6 8q73 63 185 140q37 26 59 38q15 8 40 -1q3 -1 4 -2q22 -18 35 -80q1 -3 1 -5q2 -45 -36 -116q-24 -45 -142 -237zM728 1042 q-4 2 -6 0q-48 -57 -131 -120q-2 -1 -3 -2q-27 -17 -39 -17q-19 3 -20 16v2q0 14 21 29q1 1 2 1q12 7 46 27q88 51 123 74q6 4 11 -1q67 -83 86 -103l4 -4q21 -21 20 -33q0 -15 -15 -20q-4 -1 -7 -1q-23 3 -37 27q-8 16 -26 58q-18 43 -29 67z" glyph-name="Ucircumflex" horiz-adv-x="928" unicode="Û"/>
<glyph d="M836 424q-134 -217 -158 -267q-29 -60 -28 -95q3 -25 25 -47q7 -6 13 -8q35 10 175 126q15 12 25 21l5 -7q-178 -155 -234 -185q-12 -8 -38 0q-4 1 -5 2q-42 36 -48 84q-3 58 53 157q-100 -112 -217 -190q-95 -63 -151 -63q-86 0 -141 79q-39 57 -43 130q-5 93 86 229 q27 40 90 124q105 140 123 170q32 53 31 84q-3 26 -27 55q-35 -10 -163 -105q-34 -25 -50 -39l-6 8q73 64 185 140q38 26 60 38q15 8 40 -1q3 -1 4 -2q25 -23 35 -85q6 -48 -80 -169q-9 -14 -95 -129q-117 -159 -144 -236q-14 -42 -12 -76q7 -88 61 -139q41 -39 98 -39 q66 0 219 133q70 61 114 112q16 27 56 90q50 79 79 127q29 47 73 117q74 119 84 148q7 23 6 50q-3 27 -28 55q-34 -10 -157 -99q-38 -28 -55 -43l-6 8q73 63 185 140q37 26 59 38q15 8 40 -1q3 -1 4 -2q22 -18 35 -80q1 -3 1 -5q2 -45 -36 -116q-24 -45 -142 -237zM527 948 q0 35 31 50q12 5 23 5q34 0 49 -31q6 -12 6 -24q0 -34 -32 -49q-11 -5 -23 -5q-34 0 -49 31q-5 11 -5 23zM745 948q0 35 31 50q12 5 23 5q34 0 49 -31q6 -12 6 -24q0 -34 -32 -49q-11 -5 -23 -5q-34 0 -49 31q-5 11 -5 23z" glyph-name="Udieresis" horiz-adv-x="928" unicode="Ü"/>
<glyph d="M256 3q-74 0 -213 -2q-73 -1 -94 -1q-14 0 11 27q27 28 43 28q146 0 219 58q51 41 112 151q11 19 33 62q36 66 57 103q-37 220 -95 302q-18 23 -63 38q-43 -14 -144 -83q-28 -20 -44 -33l-5 7q151 117 241 165q18 8 33 -1q28 -18 48 -47l3 -6q76 -138 97 -330 q43 36 125 104q143 117 195 163q38 34 105 92q87 76 113 101q20 21 36 7q15 -13 1 -32q-4 -5 -9 -9q-125 -83 -236 -170q-201 -157 -337 -287q-84 -155 -112 -193q-52 -72 -137 -118q-42 -23 -105 -49q54 -1 277 19q45 4 62 4q16 0 -7 -31q-22 -30 -42 -37q-9 -5 -73 -3 q-49 1 -95 1zM630 871q-3 -2 -4 -2q-3 1 -4 4q1 2 3 5q39 37 121 149q8 12 11 15q7 6 26 6h4.5h4.5t3.5 -0.5l3 -1t3.5 -0.5l1 -1q3 -4 3 -21q-1 -8 -13 -19q-4 -4 -28 -22q-95 -71 -135 -112z" glyph-name="Yacute" horiz-adv-x="599" unicode="Ý"/>
<glyph d="M464 421q101 218 179 300q44 45 92 67q-67 7 -294 -32q-42 -7 -50 -7q-15 0 13 31q24 26 43 34q12 6 164 6q38 0 355 9q48 0 59 -14q4 -18 -38 -47q-4 -3 -7 -5q-11 -3 -94 11q-131 21 -178 -11q-44 -30 -79 -124q-7 -19 -22 -62q-36 -103 -63 -164q-24 -52 -51 -103 q114 136 250 253q102 88 143 95q52 -15 38 -121q-12 -91 -55 -156q-4 -7 -7 -11q-71 -93 -167 -145q-67 -36 -125 -37q-71 1 -130 35q-91 -135 -179 -183q22 -8 208 19q123 18 154 17q16 -1 5 -24q-14 -33 -50 -45q-14 -5 -27 -5l-139 3q-79 0 -390 -8q-45 0 -59 15 q-1 15 28 37q12 8 21 11q10 3 84 -10q54 -9 90 -9q71 1 105 27q45 36 89 143q8 20 25 65q36 92 59 145zM631 211q59 0 127 76q25 27 40 54q44 77 48 172q2 72 -25 93q-30 -11 -130 -102q-133 -122 -212 -236q70 -57 152 -57z" glyph-name="Thorn" horiz-adv-x="925" unicode="Þ"/>
<glyph d="M341 -8q-65 -2 -99 39q-5 5 -8 10q-20 33 1 74q19 34 55 44l4 -3q-2 -65 43 -105q53 -46 116 -21q45 20 26 93q-9 36 -51 138q-23 60 -1 134q18 58 105 112q16 11 46 28q93 52 122 86q13 16 20 31q27 61 -15 103q-34 35 -95 35q-85 0 -161 -83q-59 -65 -131 -191 q-47 -84 -190 -359q-50 -97 -93 -174q-79 -143 -198 -203q-53 -27 -95 -27q-77 0 -96 53q-5 13 -5 27q0 46 38 70q14 9 30 12q-3 -33 4 -66q12 -52 46 -69q12 -6 23 -6q38 0 64 25q40 38 118 178q25 46 103 199q103 202 143 275h-62q-11 3 -5 10q1 2 2 2l110 64 q101 153 241 234q93 53 172 53q81 0 115 -54q26 -44 4 -94q-21 -47 -100 -86q-12 -6 -38 -18q-45 -21 -66 -33q-68 -39 -87 -62q-13 -16 -20 -36q-17 -55 26 -146q84 -185 -25 -254q-64 -39 -136 -39z" glyph-name="germandbls" horiz-adv-x="635" unicode="ß"/>
<glyph d="M303 84q-4 48 63 146q30 45 35 53q-130 -140 -293 -280q-12 -9 -36 -2q-3 1 -4 2q-46 35 -34 141q7 57 28 110q48 118 174 199q92 59 160 59q51 0 86 -25q22 -17 50 -48q36 31 70 68q9 9 9 -2q-78 -97 -155 -234q-71 -128 -69 -178q1 -25 28 -39q4 -2 8 -3q51 23 107 75 l13 13l6 -7q-92 -89 -158 -129q-13 -8 -48 -2q-6 2 -8 3q-29 34 -32 80zM131 53q44 12 198 169q85 87 149 164q-70 88 -117 99q-11 3 -23 3q-60 0 -125 -79q-51 -63 -77 -142q-41 -126 -17 -193q5 -13 12 -21zM544 580q-37 39 -148 122q-12 9 -15 12q-12 11 -13 19 q0 18 3 21q4 3 20 3q20 -1 26 -6q3 -4 20 -27q71 -98 112 -137q2 -3 3 -5q-1 -3 -4 -4q-3 1 -4 2z" glyph-name="agrave" horiz-adv-x="579" unicode="à"/>
<glyph d="M303 84q-4 48 63 146q30 45 35 53q-130 -140 -293 -280q-12 -9 -36 -2q-3 1 -4 2q-46 35 -34 141q7 57 28 110q48 118 174 199q92 59 160 59q51 0 86 -25q22 -17 50 -48q36 31 70 68q9 9 9 -2q-78 -97 -155 -234q-71 -128 -69 -178q1 -25 28 -39q4 -2 8 -3q51 23 107 75 l13 13l6 -7q-92 -89 -158 -129q-13 -8 -48 -2q-6 2 -8 3q-29 34 -32 80zM131 53q44 12 198 169q85 87 149 164q-70 88 -117 99q-11 3 -23 3q-60 0 -125 -79q-51 -63 -77 -142q-41 -126 -17 -193q5 -13 12 -21zM493 590q-3 -2 -4 -2q-3 1 -4 4q1 2 3 5q39 37 121 149 q8 12 11 15q7 6 26 6h4.5h4.5t3.5 -0.5l3 -1t2.5 -1.5h2q3 -4 3 -21q-1 -8 -13 -19q-4 -4 -28 -22q-95 -71 -135 -112z" glyph-name="aacute" horiz-adv-x="579" unicode="á"/>
<glyph d="M303 84q-4 48 63 146q30 45 35 53q-130 -140 -293 -280q-12 -9 -36 -2q-3 1 -4 2q-46 35 -34 141q7 57 28 110q48 118 174 199q92 59 160 59q51 0 86 -25q22 -17 50 -48q36 31 70 68q9 9 9 -2q-78 -97 -155 -234q-71 -128 -69 -178q1 -25 28 -39q4 -2 8 -3q51 23 107 75 l13 13l6 -7q-92 -89 -158 -129q-13 -8 -48 -2q-6 2 -8 3q-29 34 -32 80zM131 53q44 12 198 169q85 87 149 164q-70 88 -117 99q-11 3 -23 3q-60 0 -125 -79q-51 -63 -77 -142q-41 -126 -17 -193q5 -13 12 -21zM560 722q-4 2 -6 0q-48 -57 -131 -120q-2 -1 -3 -2 q-27 -17 -39 -17q-19 3 -20 16v2q0 14 21 29q1 1 2 1q12 7 46 27q88 51 123 74q6 4 11 -1q67 -83 86 -103l4 -4q21 -21 20 -33q0 -15 -15 -20q-4 -1 -7 -1q-23 3 -37 27q-8 16 -26 58q-18 43 -29 67z" glyph-name="acircumflex" horiz-adv-x="579" unicode="â"/>
<glyph d="M303 84q-4 48 63 146q30 45 35 53q-130 -140 -293 -280q-12 -9 -36 -2q-3 1 -4 2q-46 35 -34 141q7 57 28 110q48 118 174 199q92 59 160 59q51 0 86 -25q22 -17 50 -48q36 31 70 68q9 9 9 -2q-78 -97 -155 -234q-71 -128 -69 -178q1 -25 28 -39q4 -2 8 -3q51 23 107 75 l13 13l6 -7q-92 -89 -158 -129q-13 -8 -48 -2q-6 2 -8 3q-29 34 -32 80zM131 53q44 12 198 169q85 87 149 164q-70 88 -117 99q-11 3 -23 3q-60 0 -125 -79q-51 -63 -77 -142q-41 -126 -17 -193q5 -13 12 -21zM358 600q63 81 82 94q13 8 24 8q24 0 96 -38q50 -26 69 -26 q18 0 30 13q10 12 35 47q7 9 10 3q0 -4 -2 -8q-60 -87 -91 -104q-12 -6 -24 -6q-23 0 -88 38q-54 31 -75 31q-10 0 -29 -21q-5 -7 -29 -36q-9 -10 -10 -4q0 4 2 9z" glyph-name="atilde" horiz-adv-x="579" unicode="ã"/>
<glyph d="M303 84q-4 48 63 146q30 45 35 53q-130 -140 -293 -280q-12 -9 -36 -2q-3 1 -4 2q-46 35 -34 141q7 57 28 110q48 118 174 199q92 59 160 59q51 0 86 -25q22 -17 50 -48q36 31 70 68q9 9 9 -2q-78 -97 -155 -234q-71 -128 -69 -178q1 -25 28 -39q4 -2 8 -3q51 23 107 75 l13 13l6 -7q-92 -89 -158 -129q-13 -8 -48 -2q-6 2 -8 3q-29 34 -32 80zM131 53q44 12 198 169q85 87 149 164q-70 88 -117 99q-11 3 -23 3q-60 0 -125 -79q-51 -63 -77 -142q-41 -126 -17 -193q5 -13 12 -21zM588 648q0 35 31 50q12 5 23 5q34 0 49 -31q6 -12 6 -24 q0 -34 -32 -49q-11 -5 -23 -5q-34 0 -49 31q-5 11 -5 23zM370 648q0 35 31 50q12 5 23 5q34 0 49 -31q6 -12 6 -24q0 -34 -32 -49q-11 -5 -23 -5q-34 0 -49 31q-5 11 -5 23z" glyph-name="adieresis" horiz-adv-x="579" unicode="ä"/>
<glyph d="M303 84q-4 48 63 146q30 45 35 53q-130 -140 -293 -280q-12 -9 -36 -2q-3 1 -4 2q-46 35 -34 141q7 57 28 110q48 118 174 199q92 59 160 59q51 0 86 -25q22 -17 50 -48q36 31 70 68q9 9 9 -2q-78 -97 -155 -234q-71 -128 -69 -178q1 -25 28 -39q4 -2 8 -3q51 23 107 75 l13 13l6 -7q-92 -89 -158 -129q-13 -8 -48 -2q-6 2 -8 3q-29 34 -32 80zM131 53q44 12 198 169q85 87 149 164q-70 88 -117 99q-11 3 -23 3q-60 0 -125 -79q-51 -63 -77 -142q-41 -126 -17 -193q5 -13 12 -21zM459 660q0 48 41 71q19 10 40 10q48 0 71 -41q10 -19 10 -40 q0 -48 -41 -71q-19 -10 -40 -10q-48 0 -71 41q-10 19 -10 40zM472 660q0 -40 36 -60q16 -8 32 -8q40 0 60 36q8 16 8 32q0 40 -36 60q-16 8 -32 8q-40 0 -60 -36q-8 -16 -8 -32z" glyph-name="aring" horiz-adv-x="579" unicode="å"/>
<glyph d="M108 3q-12 -9 -36 -2q-3 1 -4 2q-46 35 -34 141q7 57 28 110q48 118 174 199q92 59 160 59q50 0 85 -26q24 -18 57 -53q30 24 66 45q67 36 124 36q71 0 86 -38q2 -5 3 -9q9 -58 -114 -148q-87 -64 -259 -162q-1 -24 0 -46q17 -55 58 -66q45 -13 116 18q3 1 4 2 q39 18 95 71q17 16 28 30l9 -5q-61 -72 -155 -124q-77 -43 -129 -43q-43 0 -79 42q-15 18 -22 37q-22 82 24 179q12 24 26 48l5 9q-117 -135 -313 -304q-2 -1 -3 -2zM131 53q44 12 198 169q85 87 149 164q-70 88 -117 99q-11 3 -23 3q-60 0 -125 -79q-51 -63 -77 -142 q-41 -126 -17 -193q5 -13 12 -21zM738 383q16 43 -25 77q-40 33 -86 20q-2 -1 -4 -1q-53 -35 -108 -128q-58 -97 -70 -184q209 123 256 167q29 26 37 49z" glyph-name="ae" horiz-adv-x="816" unicode="æ"/>
<glyph d="M23 -242q0 32 25 44q8 3 16 3q19 0 50 -25q32 -25 57 -25q32 0 46 35q5 13 5 26q0 62 -116 74q-28 3 -61 3q-9 2 -5 11l73 97q-51 21 -68 69q-19 72 1 138q14 44 42 92q50 89 178 168l32 18q58 31 121 31q76 0 91 -46q3 -9 3 -18q0 -34 -39 -52q-10 -5 -19 -6 q-24 90 -108 91q-24 0 -44 -6q-73 -52 -125 -137q-69 -116 -59 -232q16 -53 62 -66q47 -13 115 17q2 1 3 1q44 20 93 69q13 13 22 24l9 -5q-57 -67 -142 -114q-77 -43 -127 -43q-16 0 -32 5l-31 -47q1 -3 5 -3q110 0 144 -51q9 -14 9 -28q0 -55 -43 -106q-41 -46 -91 -47 q-63 0 -86 26q-6 8 -6 15z" glyph-name="ccedilla" horiz-adv-x="493" unicode="ç"/>
<glyph d="M488 467q9 -58 -114 -148q-87 -64 -259 -162q-1 -24 0 -46q17 -55 58 -66q45 -13 116 18q3 1 4 2q39 18 95 71q17 16 28 30l9 -5q-61 -72 -155 -124q-77 -43 -129 -43q-43 0 -79 42q-15 18 -22 37q-22 82 24 179q12 24 26 48q44 79 140 149q24 17 45 29q67 36 124 36 q71 0 86 -38q2 -5 3 -9zM409 383q16 43 -25 77q-40 33 -86 20q-2 -1 -4 -1q-53 -35 -108 -128q-58 -97 -70 -184q209 123 256 167q29 26 37 49zM437 585q-37 39 -148 122q-12 9 -15 12q-12 11 -13 19q0 18 3 21q4 3 20 3q20 -1 26 -6q3 -4 20 -27q71 -98 112 -137q2 -3 3 -5 q-1 -3 -4 -4q-3 1 -4 2z" glyph-name="egrave" horiz-adv-x="486" unicode="è"/>
<glyph d="M488 467q9 -58 -114 -148q-87 -64 -259 -162q-1 -24 0 -46q17 -55 58 -66q45 -13 116 18q3 1 4 2q39 18 95 71q17 16 28 30l9 -5q-61 -72 -155 -124q-77 -43 -129 -43q-43 0 -79 42q-15 18 -22 37q-22 82 24 179q12 24 26 48q44 79 140 149q24 17 45 29q67 36 124 36 q71 0 86 -38q2 -5 3 -9zM409 383q16 43 -25 77q-40 33 -86 20q-2 -1 -4 -1q-53 -35 -108 -128q-58 -97 -70 -184q209 123 256 167q29 26 37 49zM419 590q-3 -2 -4 -2q-3 1 -4 4q1 2 3 5q39 37 121 149q8 12 11 15q7 6 26 6h4.5h4.5t3.5 -0.5l3 -1t2.5 -1.5h2q3 -4 3 -21 q-1 -8 -13 -19q-4 -4 -28 -22q-95 -71 -135 -112z" glyph-name="eacute" horiz-adv-x="486" unicode="é"/>
<glyph d="M488 467q9 -58 -114 -148q-87 -64 -259 -162q-1 -24 0 -46q17 -55 58 -66q45 -13 116 18q3 1 4 2q39 18 95 71q17 16 28 30l9 -5q-61 -72 -155 -124q-77 -43 -129 -43q-43 0 -79 42q-15 18 -22 37q-22 82 24 179q12 24 26 48q44 79 140 149q24 17 45 29q67 36 124 36 q71 0 86 -38q2 -5 3 -9zM409 383q16 43 -25 77q-40 33 -86 20q-2 -1 -4 -1q-53 -35 -108 -128q-58 -97 -70 -184q209 123 256 167q29 26 37 49zM449 731q-4 2 -6 0q-48 -57 -131 -120q-2 -1 -3 -2q-27 -17 -39 -17q-19 3 -20 16v2q0 14 21 29q1 1 2 1q12 7 46 27 q88 51 123 74q6 4 11 -1q67 -83 86 -103l4 -4q21 -21 20 -33q0 -15 -15 -20q-4 -1 -7 -1q-23 3 -37 27q-8 16 -26 58q-18 43 -29 67z" glyph-name="ecircumflex" horiz-adv-x="486" unicode="ê"/>
<glyph d="M488 467q9 -58 -114 -148q-87 -64 -259 -162q-1 -24 0 -46q17 -55 58 -66q45 -13 116 18q3 1 4 2q39 18 95 71q17 16 28 30l9 -5q-61 -72 -155 -124q-77 -43 -129 -43q-43 0 -79 42q-15 18 -22 37q-22 82 24 179q12 24 26 48q44 79 140 149q24 17 45 29q67 36 124 36 q71 0 86 -38q2 -5 3 -9zM409 383q16 43 -25 77q-40 33 -86 20q-2 -1 -4 -1q-53 -35 -108 -128q-58 -97 -70 -184q209 123 256 167q29 26 37 49zM481 648q0 35 31 50q12 5 23 5q34 0 49 -31q6 -12 6 -24q0 -34 -32 -49q-11 -5 -23 -5q-34 0 -49 31q-5 11 -5 23zM263 648 q0 35 31 50q12 5 23 5q34 0 49 -31q6 -12 6 -24q0 -34 -32 -49q-11 -5 -23 -5q-34 0 -49 31q-5 11 -5 23z" glyph-name="edieresis" horiz-adv-x="486" unicode="ë"/>
<glyph d="M292 430q0 -28 -67 -122q-31 -44 -41 -61q-60 -97 -68 -115q-14 -29 -13 -47q1 -22 37 -35q4 -1 6 -2q48 17 112 79l8 8l6 -7q-86 -83 -155 -125q-13 -8 -47 -1q-6 1 -8 2q-32 24 -40 65q-1 5 -1 9q-3 34 68 147q18 30 23 38q17 28 45 70q44 68 50 90q5 21 -17 38 q-7 5 -13 6q-35 -12 -105 -68q-11 -9 -19 -16l-7 5q58 56 150 116q9 5 15 9q17 9 33 3q24 -12 41 -57q7 -17 7 -29zM319 579q-37 39 -148 122q-12 9 -15 12q-12 11 -13 19q0 18 3 21q4 3 20 3q20 -1 26 -6q3 -4 20 -27q71 -98 112 -137q2 -3 3 -5q-1 -3 -4 -4q-3 1 -4 2z " glyph-name="igrave" horiz-adv-x="309" unicode="ì"/>
<glyph d="M292 430q0 -28 -67 -122q-31 -44 -41 -61q-60 -97 -68 -115q-14 -29 -13 -47q1 -22 37 -35q4 -1 6 -2q48 17 112 79l8 8l6 -7q-86 -83 -155 -125q-13 -8 -47 -1q-6 1 -8 2q-32 24 -40 65q-1 5 -1 9q-3 34 68 147q18 30 23 38q17 28 45 70q44 68 50 90q5 21 -17 38 q-7 5 -13 6q-35 -12 -105 -68q-11 -9 -19 -16l-7 5q58 56 150 116q9 5 15 9q17 9 33 3q24 -12 41 -57q7 -17 7 -29zM302 586q-3 -2 -4 -2q-3 1 -4 4q1 2 3 5q39 37 121 149q8 12 11 15q7 6 26 6h4.5h4.5t3.5 -0.5l3 -1t3.5 -1.5h1q3 -4 3 -21q-1 -8 -13 -19q-4 -4 -28 -22 q-95 -71 -135 -112z" glyph-name="iacute" horiz-adv-x="309" unicode="í"/>
<glyph d="M292 430q0 -28 -67 -122q-31 -44 -41 -61q-60 -97 -68 -115q-14 -29 -13 -47q1 -22 37 -35q4 -1 6 -2q48 17 112 79l8 8l6 -7q-86 -83 -155 -125q-13 -8 -47 -1q-6 1 -8 2q-32 24 -40 65q-1 5 -1 9q-3 34 68 147q18 30 23 38q17 28 45 70q44 68 50 90q5 21 -17 38 q-7 5 -13 6q-35 -12 -105 -68q-11 -9 -19 -16l-7 5q58 56 150 116q9 5 15 9q17 9 33 3q24 -12 41 -57q7 -17 7 -29zM347 716q-4 2 -6 0q-48 -57 -131 -120q-2 -1 -3 -2q-27 -17 -39 -17q-19 3 -20 16v2q0 14 21 29q1 1 2 1q12 7 46 27q88 51 123 74q6 4 11 -1 q67 -83 86 -103l4 -4q21 -21 20 -33q0 -15 -15 -20q-4 -1 -7 -1q-23 3 -37 27q-8 16 -26 58q-18 43 -29 67z" glyph-name="icircumflex" horiz-adv-x="309" unicode="î"/>
<glyph d="M292 430q0 -28 -67 -122q-31 -44 -41 -61q-60 -97 -68 -115q-14 -29 -13 -47q1 -22 37 -35q4 -1 6 -2q48 17 112 79l8 8l6 -7q-86 -83 -155 -125q-13 -8 -47 -1q-6 1 -8 2q-32 24 -40 65q-1 5 -1 9q-3 34 68 147q18 30 23 38q17 28 45 70q44 68 50 90q5 21 -17 38 q-7 5 -13 6q-35 -12 -105 -68q-11 -9 -19 -16l-7 5q58 56 150 116q9 5 15 9q17 9 33 3q24 -12 41 -57q7 -17 7 -29zM353 638q0 35 31 50q12 5 23 5q34 0 49 -31q6 -12 6 -24q0 -34 -32 -49q-11 -5 -23 -5q-34 0 -49 31q-5 11 -5 23zM135 638q0 35 31 50q12 5 23 5 q34 0 49 -31q6 -12 6 -24q0 -34 -32 -49q-11 -5 -23 -5q-34 0 -49 31q-5 11 -5 23z" glyph-name="idieresis" horiz-adv-x="309" unicode="ï"/>
<glyph d="M150 -6q-54 0 -92 44q-14 17 -20 35q-22 82 24 179q12 24 26 48q44 78 137 148q26 20 49 33q67 36 112 36q54 -1 77 -24q10 94 3 193q-81 -29 -158 -61q-9 1 -10 15q0 5 2 8q146 42 166 48q-6 85 -19 129q-3 8 -1 11q3 3 6 -5q1 -3 2 -5q21 -59 39 -121q35 11 154 60 q11 5 19 8q11 -4 11 -17q0 -4 -2 -6q-121 -34 -180 -53q75 -283 -41 -470q-70 -124 -195 -193q-72 -39 -109 -40zM171 45q46 -12 114 15q41 21 95 142q14 29 24 58q27 75 40 134q-14 67 -74 88q-37 12 -80 -1q-50 -31 -105 -123q-81 -136 -72 -247q17 -55 58 -66z" glyph-name="eth" horiz-adv-x="534" unicode="ð"/>
<glyph d="M59 4q-39 -2 -41 -2q-32 4 -20 41q1 1 1 2q100 137 154 258q33 73 31 110q-3 33 -32 42q-44 -11 -100 -64q-10 -9 -17 -17l-7 7q83 80 162 125q39 21 62 -44q9 -26 11 -48q4 -50 -75 -188q-2 -4 -6 -11q-3 -5 -4 -7q104 132 243 237q75 56 115 68q84 -19 -4 -189 q-17 -34 -40 -72q-57 -101 -59 -105q-17 -37 -16 -57q3 -31 29 -40q50 17 111 75l10 10l6 -7q-86 -83 -155 -125q-14 -8 -40 -1q-4 1 -5 2q-30 23 -37 71q-1 5 -1 8q-2 33 63 139q21 34 27 45q80 138 70 175q-4 11 -13 20q-57 -17 -159 -111q-98 -90 -170 -195 q-29 -43 -94 -152zM272 585q63 81 82 94q13 8 24 8q24 0 96 -38q50 -26 69 -26q18 0 30 13q10 12 35 47q7 9 10 3q0 -4 -2 -8q-60 -87 -91 -104q-12 -6 -24 -6q-23 0 -88 38q-54 31 -75 31q-10 0 -29 -21q-5 -7 -29 -36q-9 -10 -10 -4q0 4 2 9z" glyph-name="ntilde" horiz-adv-x="620" unicode="ñ"/>
<glyph d="M441 200q-53 -94 -183 -166q-74 -38 -108 -40q-54 0 -92 44q-14 17 -20 35q-22 82 24 179q12 24 26 48q44 78 137 148q26 20 49 33q67 36 118 36h1q50 0 85 -45q12 -17 18 -35q19 -62 -17 -159q-15 -39 -38 -78zM171 45q46 -12 114 15q41 20 88 126q53 121 49 204 q-7 70 -53 86q-40 11 -63 8q-9 -1 -16 -3q-50 -31 -105 -123q-81 -136 -72 -247q17 -55 58 -66zM441 586q-37 39 -148 122q-12 9 -15 12q-12 11 -13 19q0 18 3 21q4 3 20 3q20 -1 26 -6q3 -4 20 -27q71 -98 112 -137q2 -3 3 -5q-1 -3 -4 -4q-3 1 -4 2z" glyph-name="ograve" horiz-adv-x="532" unicode="ò"/>
<glyph d="M441 200q-53 -94 -183 -166q-74 -38 -108 -40q-54 0 -92 44q-14 17 -20 35q-22 82 24 179q12 24 26 48q44 78 137 148q26 20 49 33q67 36 118 36h1q50 0 85 -45q12 -17 18 -35q19 -62 -17 -159q-15 -39 -38 -78zM171 45q46 -12 114 15q41 20 88 126q53 121 49 204 q-7 70 -53 86q-40 11 -63 8q-9 -1 -16 -3q-50 -31 -105 -123q-81 -136 -72 -247q17 -55 58 -66zM428 590q-3 -2 -4 -2q-3 1 -4 4q1 2 3 5q39 37 121 149q8 12 11 15q7 6 26 6h4.5h4.5t3.5 -0.5l3 -1t3.5 -1.5h1q3 -4 3 -21q-1 -8 -13 -19q-4 -4 -28 -22q-95 -71 -135 -112z " glyph-name="oacute" horiz-adv-x="532" unicode="ó"/>
<glyph d="M441 200q-53 -94 -183 -166q-74 -38 -108 -40q-54 0 -92 44q-14 17 -20 35q-22 82 24 179q12 24 26 48q44 78 137 148q26 20 49 33q67 36 118 36h1q50 0 85 -45q12 -17 18 -35q19 -62 -17 -159q-15 -39 -38 -78zM171 45q46 -12 114 15q41 20 88 126q53 121 49 204 q-7 70 -53 86q-40 11 -63 8q-9 -1 -16 -3q-50 -31 -105 -123q-81 -136 -72 -247q17 -55 58 -66zM478 722q-4 2 -6 0q-48 -57 -131 -120q-2 -1 -3 -2q-27 -17 -39 -17q-19 3 -20 16v2q0 14 21 29q1 1 2 1q12 7 46 27q88 51 123 74q6 4 11 -1q67 -83 86 -103l4 -4 q21 -21 20 -33q0 -15 -15 -20q-4 -1 -7 -1q-23 3 -37 27q-8 16 -26 58q-18 43 -29 67z" glyph-name="ocircumflex" horiz-adv-x="532" unicode="ô"/>
<glyph d="M441 200q-53 -94 -183 -166q-74 -38 -108 -40q-54 0 -92 44q-14 17 -20 35q-22 82 24 179q12 24 26 48q44 78 137 148q26 20 49 33q67 36 118 36h1q50 0 85 -45q12 -17 18 -35q19 -62 -17 -159q-15 -39 -38 -78zM171 45q46 -12 114 15q41 20 88 126q53 121 49 204 q-7 70 -53 86q-40 11 -63 8q-9 -1 -16 -3q-50 -31 -105 -123q-81 -136 -72 -247q17 -55 58 -66zM291 595q63 81 82 94q13 8 24 8q24 0 96 -38q50 -26 69 -26q18 0 30 13q10 12 35 47q7 9 10 3q0 -4 -2 -8q-60 -87 -91 -104q-12 -6 -24 -6q-23 0 -88 38q-54 31 -75 31 q-10 0 -29 -21q-5 -7 -29 -36q-9 -10 -10 -4q0 4 2 9z" glyph-name="otilde" horiz-adv-x="532" unicode="õ"/>
<glyph d="M441 200q-53 -94 -183 -166q-74 -38 -108 -40q-54 0 -92 44q-14 17 -20 35q-22 82 24 179q12 24 26 48q44 78 137 148q26 20 49 33q67 36 118 36h1q50 0 85 -45q12 -17 18 -35q19 -62 -17 -159q-15 -39 -38 -78zM171 45q46 -12 114 15q41 20 88 126q53 121 49 204 q-7 70 -53 86q-40 11 -63 8q-9 -1 -16 -3q-50 -31 -105 -123q-81 -136 -72 -247q17 -55 58 -66zM507 638q0 35 31 50q12 5 23 5q34 0 49 -31q6 -12 6 -24q0 -34 -32 -49q-11 -5 -23 -5q-34 0 -49 31q-5 11 -5 23zM289 638q0 35 31 50q12 5 23 5q34 0 49 -31q6 -12 6 -24 q0 -34 -32 -49q-11 -5 -23 -5q-34 0 -49 31q-5 11 -5 23z" glyph-name="odieresis" horiz-adv-x="532" unicode="ö"/>
<glyph d="M272 251q74 0 171 6q9 -7 4 -19q-2 -4 -4 -5q-95 7 -170 7q-77 0 -170 -7q-9 5 -4 19q2 3 4 5q99 -6 169 -6zM237 109q0 27 25 36q7 2 13 2q25 0 35 -24q3 -7 3 -14q0 -25 -24 -35q-8 -3 -14 -3q-27 0 -36 25q-2 7 -2 13zM237 383q0 27 25 36q7 2 13 2q25 0 35 -24 q3 -7 3 -14q0 -25 -24 -35q-8 -3 -14 -3q-27 0 -36 25q-2 7 -2 13z" glyph-name="divide" horiz-adv-x="558" unicode="÷"/>
<glyph d="M441 200q-53 -94 -183 -166q-74 -38 -108 -40q-18 0 -36 6l-61 -104q-18 -2 -22 1q-3 2 -6 5q15 23 42 61q21 31 30 44q-45 23 -59 66q-22 82 24 179q12 24 26 48q44 78 137 148q26 20 49 33q67 36 118 36h1h6q6 -1 8 -1l57 95q15 1 24 -6q2 -1 3 -2l-65 -93 q48 -18 68 -66q1 -4 2 -7q19 -62 -17 -159q-15 -39 -38 -78zM171 45q46 -12 114 15q41 20 88 126q53 121 49 204q-5 48 -26 69q-21 -32 -131 -213q-62 -98 -118 -190q12 -8 24 -11zM252 253q89 144 131 216q-5 3 -14 7q-40 11 -63 8q-9 -1 -16 -3q-50 -31 -105 -123 q-81 -136 -72 -247q8 -30 22 -44q34 52 117 186z" glyph-name="oslash" horiz-adv-x="532" unicode="ø"/>
<glyph d="M266 414q1 -25 -71 -154q-4 -6 -6 -10q-14 -25 -38 -67q-41 -70 -49 -93q-1 -30 40 -42q44 0 157 117q82 87 156 191q17 24 71 121q7 14 12 21q75 21 75 -12q-1 -9 -5 -20q-91 -130 -157 -261q-40 -81 -43 -115q-1 -21 30 -36l10 -4q50 17 111 75l10 10l6 -7 q-86 -83 -155 -125q-13 -8 -48 -1q-6 1 -8 2q-31 23 -38 76v3q-4 36 82 183q17 30 20 35q-122 -158 -238 -250q-60 -47 -93 -54q-41 6 -66 37q-10 14 -14 29q-3 22 48 107q40 65 55 93q55 100 62 132q2 13 2 23q-3 28 -33 37q-44 -11 -100 -64q-10 -9 -17 -17l-7 7 q83 80 162 125q38 21 64 -41q11 -28 13 -51zM428 565q-37 39 -148 122q-12 9 -15 12q-12 11 -13 19q0 18 3 21q4 3 20 3q20 -1 26 -6q3 -4 20 -27q71 -98 112 -137q2 -3 3 -5q-1 -3 -4 -4q-3 1 -4 2z" glyph-name="ugrave" horiz-adv-x="607" unicode="ù"/>
<glyph d="M266 414q1 -25 -71 -154q-4 -6 -6 -10q-14 -25 -38 -67q-41 -70 -49 -93q-1 -30 40 -42q44 0 157 117q82 87 156 191q17 24 71 121q7 14 12 21q75 21 75 -12q-1 -9 -5 -20q-91 -130 -157 -261q-40 -81 -43 -115q-1 -21 30 -36l10 -4q50 17 111 75l10 10l6 -7 q-86 -83 -155 -125q-13 -8 -48 -1q-6 1 -8 2q-31 23 -38 76v3q-4 36 82 183q17 30 20 35q-122 -158 -238 -250q-60 -47 -93 -54q-41 6 -66 37q-10 14 -14 29q-3 22 48 107q40 65 55 93q55 100 62 132q2 13 2 23q-3 28 -33 37q-44 -11 -100 -64q-10 -9 -17 -17l-7 7 q83 80 162 125q38 21 64 -41q11 -28 13 -51zM387 565q-3 -2 -4 -2q-3 1 -4 4q1 2 3 5q39 37 121 149q8 12 11 15q7 6 26 6h4.5h4.5t3.5 -0.5l3 -1t2.5 -0.5l2 -1q3 -4 3 -21q-1 -8 -13 -19q-4 -4 -28 -22q-95 -71 -135 -112z" glyph-name="uacute" horiz-adv-x="607" unicode="ú"/>
<glyph d="M266 414q1 -25 -71 -154q-4 -6 -6 -10q-14 -25 -38 -67q-41 -70 -49 -93q-1 -30 40 -42q44 0 157 117q82 87 156 191q17 24 71 121q7 14 12 21q75 21 75 -12q-1 -9 -5 -20q-91 -130 -157 -261q-40 -81 -43 -115q-1 -21 30 -36l10 -4q50 17 111 75l10 10l6 -7 q-86 -83 -155 -125q-13 -8 -48 -1q-6 1 -8 2q-31 23 -38 76v3q-4 36 82 183q17 30 20 35q-122 -158 -238 -250q-60 -47 -93 -54q-41 6 -66 37q-10 14 -14 29q-3 22 48 107q40 65 55 93q55 100 62 132q2 13 2 23q-3 28 -33 37q-44 -11 -100 -64q-10 -9 -17 -17l-7 7 q83 80 162 125q38 21 64 -41q11 -28 13 -51zM457 716q-4 2 -6 0q-48 -57 -131 -120q-2 -1 -3 -2q-27 -17 -39 -17q-19 3 -20 16v2q0 14 21 29q1 1 2 1q12 7 46 27q88 51 123 74q6 4 11 -1q67 -83 86 -103l4 -4q21 -21 20 -33q0 -15 -15 -20q-4 -1 -7 -1q-23 3 -37 27 q-8 16 -26 58q-18 43 -29 67z" glyph-name="ucircumflex" horiz-adv-x="607" unicode="û"/>
<glyph d="M266 414q1 -25 -71 -154q-4 -6 -6 -10q-14 -25 -38 -67q-41 -70 -49 -93q-1 -30 40 -42q44 0 157 117q82 87 156 191q17 24 71 121q7 14 12 21q75 21 75 -12q-1 -9 -5 -20q-91 -130 -157 -261q-40 -81 -43 -115q-1 -21 30 -36l10 -4q50 17 111 75l10 10l6 -7 q-86 -83 -155 -125q-13 -8 -48 -1q-6 1 -8 2q-31 23 -38 76v3q-4 36 82 183q17 30 20 35q-122 -158 -238 -250q-60 -47 -93 -54q-41 6 -66 37q-10 14 -14 29q-3 22 48 107q40 65 55 93q55 100 62 132q2 13 2 23q-3 28 -33 37q-44 -11 -100 -64q-10 -9 -17 -17l-7 7 q83 80 162 125q38 21 64 -41q11 -28 13 -51zM263 638q0 35 31 50q12 5 23 5q34 0 49 -31q6 -12 6 -24q0 -34 -32 -49q-11 -5 -23 -5q-34 0 -49 31q-5 11 -5 23zM481 638q0 35 31 50q12 5 23 5q34 0 49 -31q6 -12 6 -24q0 -34 -32 -49q-11 -5 -23 -5q-34 0 -49 31 q-5 11 -5 23z" glyph-name="udieresis" horiz-adv-x="607" unicode="ü"/>
<glyph d="M263 365q0 -142 -27 -264q-8 -34 -17 -57l105 109q146 151 175 207q11 21 13 37q-3 45 -41 61q-37 -12 -97 -65l-6 6q44 44 115 89q31 19 49 25q17 4 35 -20q16 -24 10 -49q-32 -70 -188 -236q-18 -19 -58 -61q-19 -19 -56 -58q-129 -135 -214 -211q-180 -164 -368 -164 q-29 1 -39 17q-8 16 25 49q7 7 13 12h111q131 0 214 60q19 14 38 31q46 41 65 62q54 101 65 350q1 32 1 58q-1 73 -20 98q-11 11 -29 10q-32 -14 -85 -58q-6 -4 -10 -8l-6 6q70 63 143 105q11 6 22 6q18 -1 31 -14q31 -35 31 -133zM366 586q-3 -2 -4 -2q-3 1 -4 4q1 2 3 5 q39 37 121 149q8 12 11 15q7 6 26 6h4.5h4.5t3.5 -0.5l3 -1t3.5 -1.5h1q3 -4 3 -21q-1 -8 -13 -19q-4 -4 -28 -22q-95 -71 -135 -112z" glyph-name="yacute" horiz-adv-x="575" unicode="ý"/>
<glyph d="M-146 -330q-18 0 -117 -5q-63 -4 -71 -4q-9 0 -10 6q-1 4 5 6h2q80 8 110 25q44 24 102 116q34 53 130 221q130 228 343 641q35 67 44 87l15 34q-73 -60 -217 -144l-5 6q162 102 234 171q16 16 31 32q16 16 22 17q44 0 -3 -110q-5 -11 -10 -23q-47 -105 -306 -569 q185 214 301 301q49 36 73 38q27 -4 49 -49q6 -13 9 -25q18 -68 -28 -169q-7 -14 -13 -25q-63 -112 -205 -201q-88 -48 -133 -52h-12q-50 0 -94 73q-1 3 -2 4l-215 -378q11 -14 107 -18h11q7 0 7 -5q-2 -5 -12 -6q-10 0 -60 2q-65 3 -82 3zM263 36q37 1 73 19q60 49 88 91 q22 32 40 72q52 114 42 193q-1 6 -2 11q-7 32 -28 43q-2 1 -3 1q-29 -3 -146 -116q-125 -120 -191 -215q48 -78 91 -93q17 -6 36 -6z" glyph-name="thorn" horiz-adv-x="610" unicode="þ"/>
</font>
</defs>
</svg>
